<mxfile host="Electron" modified="2024-01-12T07:49:37.603Z" agent="Mozilla/5.0 (Windows NT 10.0; Win64; x64) AppleWebKit/537.36 (KHTML, like Gecko) draw.io/22.1.18 Chrome/120.0.6099.199 Electron/28.1.2 Safari/537.36" etag="SlDEGQ7epxBmZfvhZfBe" version="22.1.18" type="device">
  <diagram name="第1頁" id="xg8uBqYAGHwSVvU40WZl">
    <mxGraphModel dx="2261" dy="836" grid="1" gridSize="10" guides="1" tooltips="1" connect="1" arrows="1" fold="1" page="1" pageScale="1" pageWidth="827" pageHeight="1169" math="0" shadow="0">
      <root>
        <mxCell id="0" />
        <mxCell id="1" parent="0" />
        <mxCell id="KoFQPGKLHCBhvZpColBv-1" value="&lt;font style=&quot;font-size: 30px;&quot;&gt;fun1(3)&lt;/font&gt;" style="text;html=1;strokeColor=none;fillColor=none;align=center;verticalAlign=middle;whiteSpace=wrap;rounded=0;" vertex="1" parent="1">
          <mxGeometry x="105" y="40" width="220" height="40" as="geometry" />
        </mxCell>
        <mxCell id="KoFQPGKLHCBhvZpColBv-3" value="" style="endArrow=none;html=1;rounded=0;entryX=0.5;entryY=1;entryDx=0;entryDy=0;exitX=0.5;exitY=0;exitDx=0;exitDy=0;" edge="1" parent="1" source="KoFQPGKLHCBhvZpColBv-4" target="KoFQPGKLHCBhvZpColBv-1">
          <mxGeometry width="50" height="50" relative="1" as="geometry">
            <mxPoint x="101" y="200" as="sourcePoint" />
            <mxPoint x="221" y="170" as="targetPoint" />
          </mxGeometry>
        </mxCell>
        <mxCell id="KoFQPGKLHCBhvZpColBv-4" value="&lt;font style=&quot;font-size: 30px;&quot;&gt;OUTPUT: 3&lt;/font&gt;" style="text;html=1;strokeColor=none;fillColor=none;align=center;verticalAlign=middle;whiteSpace=wrap;rounded=0;" vertex="1" parent="1">
          <mxGeometry x="-9" y="200" width="196" height="60" as="geometry" />
        </mxCell>
        <mxCell id="KoFQPGKLHCBhvZpColBv-7" value="" style="endArrow=none;html=1;rounded=0;entryX=0.5;entryY=1;entryDx=0;entryDy=0;exitX=0.5;exitY=0;exitDx=0;exitDy=0;" edge="1" parent="1" source="KoFQPGKLHCBhvZpColBv-8" target="KoFQPGKLHCBhvZpColBv-1">
          <mxGeometry width="50" height="50" relative="1" as="geometry">
            <mxPoint x="339" y="200" as="sourcePoint" />
            <mxPoint x="325" y="90" as="targetPoint" />
          </mxGeometry>
        </mxCell>
        <mxCell id="KoFQPGKLHCBhvZpColBv-8" value="&lt;font style=&quot;font-size: 30px;&quot;&gt;fun1(3 - 1)&lt;/font&gt;" style="text;html=1;strokeColor=none;fillColor=none;align=center;verticalAlign=middle;whiteSpace=wrap;rounded=0;" vertex="1" parent="1">
          <mxGeometry x="245" y="210" width="220" height="40" as="geometry" />
        </mxCell>
        <mxCell id="KoFQPGKLHCBhvZpColBv-9" value="" style="endArrow=none;html=1;rounded=0;entryX=0.5;entryY=1;entryDx=0;entryDy=0;exitX=0.5;exitY=0;exitDx=0;exitDy=0;" edge="1" source="KoFQPGKLHCBhvZpColBv-10" target="KoFQPGKLHCBhvZpColBv-8" parent="1">
          <mxGeometry width="50" height="50" relative="1" as="geometry">
            <mxPoint x="241" y="370" as="sourcePoint" />
            <mxPoint x="361" y="340" as="targetPoint" />
          </mxGeometry>
        </mxCell>
        <mxCell id="KoFQPGKLHCBhvZpColBv-10" value="&lt;font style=&quot;font-size: 30px;&quot;&gt;OUTPUT: 2&lt;/font&gt;" style="text;html=1;strokeColor=none;fillColor=none;align=center;verticalAlign=middle;whiteSpace=wrap;rounded=0;" vertex="1" parent="1">
          <mxGeometry x="131" y="370" width="196" height="60" as="geometry" />
        </mxCell>
        <mxCell id="KoFQPGKLHCBhvZpColBv-12" value="" style="endArrow=none;html=1;rounded=0;entryX=0.5;entryY=1;entryDx=0;entryDy=0;exitX=0.5;exitY=0;exitDx=0;exitDy=0;" edge="1" source="KoFQPGKLHCBhvZpColBv-13" target="KoFQPGKLHCBhvZpColBv-8" parent="1">
          <mxGeometry width="50" height="50" relative="1" as="geometry">
            <mxPoint x="479" y="370" as="sourcePoint" />
            <mxPoint x="465" y="260" as="targetPoint" />
          </mxGeometry>
        </mxCell>
        <mxCell id="KoFQPGKLHCBhvZpColBv-13" value="&lt;font style=&quot;font-size: 30px;&quot;&gt;fun1(2 - 1)&lt;/font&gt;" style="text;html=1;strokeColor=none;fillColor=none;align=center;verticalAlign=middle;whiteSpace=wrap;rounded=0;" vertex="1" parent="1">
          <mxGeometry x="375" y="380" width="220" height="40" as="geometry" />
        </mxCell>
        <mxCell id="KoFQPGKLHCBhvZpColBv-14" value="" style="endArrow=none;html=1;rounded=0;entryX=0.5;entryY=1;entryDx=0;entryDy=0;exitX=0.5;exitY=0;exitDx=0;exitDy=0;" edge="1" source="KoFQPGKLHCBhvZpColBv-15" target="KoFQPGKLHCBhvZpColBv-13" parent="1">
          <mxGeometry width="50" height="50" relative="1" as="geometry">
            <mxPoint x="371" y="540" as="sourcePoint" />
            <mxPoint x="491" y="510" as="targetPoint" />
          </mxGeometry>
        </mxCell>
        <mxCell id="KoFQPGKLHCBhvZpColBv-15" value="&lt;font style=&quot;font-size: 30px;&quot;&gt;OUTPUT: 1&lt;/font&gt;" style="text;html=1;strokeColor=none;fillColor=none;align=center;verticalAlign=middle;whiteSpace=wrap;rounded=0;" vertex="1" parent="1">
          <mxGeometry x="261" y="540" width="196" height="60" as="geometry" />
        </mxCell>
        <mxCell id="KoFQPGKLHCBhvZpColBv-17" value="" style="endArrow=none;html=1;rounded=0;entryX=0.5;entryY=1;entryDx=0;entryDy=0;exitX=0.5;exitY=0;exitDx=0;exitDy=0;" edge="1" source="KoFQPGKLHCBhvZpColBv-20" target="KoFQPGKLHCBhvZpColBv-13" parent="1">
          <mxGeometry width="50" height="50" relative="1" as="geometry">
            <mxPoint x="609" y="540" as="sourcePoint" />
            <mxPoint x="595" y="430" as="targetPoint" />
          </mxGeometry>
        </mxCell>
        <mxCell id="KoFQPGKLHCBhvZpColBv-19" value="" style="endArrow=none;html=1;rounded=0;entryX=0.5;entryY=1;entryDx=0;entryDy=0;exitX=0.5;exitY=0;exitDx=0;exitDy=0;" edge="1" source="KoFQPGKLHCBhvZpColBv-27" target="KoFQPGKLHCBhvZpColBv-20" parent="1">
          <mxGeometry width="50" height="50" relative="1" as="geometry">
            <mxPoint x="489" y="710" as="sourcePoint" />
            <mxPoint x="621" y="680" as="targetPoint" />
          </mxGeometry>
        </mxCell>
        <mxCell id="KoFQPGKLHCBhvZpColBv-20" value="&lt;font style=&quot;font-size: 30px;&quot;&gt;fun1(1 - 1)&lt;/font&gt;" style="text;html=1;strokeColor=none;fillColor=none;align=center;verticalAlign=middle;whiteSpace=wrap;rounded=0;" vertex="1" parent="1">
          <mxGeometry x="505" y="550" width="220" height="40" as="geometry" />
        </mxCell>
        <mxCell id="KoFQPGKLHCBhvZpColBv-26" value="" style="shape=image;verticalLabelPosition=bottom;labelBackgroundColor=default;verticalAlign=top;aspect=fixed;imageAspect=0;image=data:image/png,iVBORw0KGgoAAAANSUhEUgAAARoAAAGTCAYAAAD3DN2qAAAAAXNSR0IArs4c6QAAAARnQU1BAACxjwv8YQUAAAAJcEhZcwAADsMAAA7DAcdvqGQAAD9wSURBVHhe7d0JeFTV3T/w32QP2cgi+04ggICsIoooLrghuLZarVprrW+pVrtJrbXWWmv/XfS1L62+alWqb6n7gooLiwqiQtkFAdkJEJYkZCF75n+/59yTTIZJMkvuZCb5fp7nPvfOnZs7dyZzfnO2e45r2LBhbiEiclCMvSYicgwDDRE5joGGiBznWB1Ndp+ucuEPz5CklARZPn+tfLV8p/2Ms259/Cp7Sys5XCbzf7XQftT2Lviv06X/Kb1k97r98t7fP7X3di7X3+CWCRP112jbVpf83/MiRUUu9djTtHPccvEMtxw94pKHHzrx+bY26TS3XHudvq6DB1zyrxdEdu92/nXpRH7naK757YVy419m2Y/0Y+9E7anPyd0lpWuyxMbHSv/RPe29zkNgwVJeXGHvoUDMucctj/61XiVSf+Xv0wm5pkZkyFC3nHOe/YSX3n1E4uNFevR0y8iRzrdBlJc1Xhde87zp9hMUdn4HGgSMqvIq+5GGBN2cde9tkf1bDsnRfcdk1Vub7L3OQ+4Fy8YlX9t7KBDZOToAbN2iVn5ZsljnUNat1bmF5GS1OsEnH+kcxaqVLtm40fmcBV4D14Xrg6QktaJ24HegQe7Ek/djXxY88rG88uAHVrAptveQU/r3d8uVV7tl9u3B5xQyM90qx4EcgK+iT2tO6qbX27bqtTcEmUf+5JLn54W3+JKVpdfHjul1S777Pbda8HlS22m1jqal4pHx+WsbVA4GfB3v+bxh6ja2fb7HClpJ0n1Qtso1ocjztbUPf+NtyrfGWsWwXg1Brup4jRzdWyQrXlp/QjA75YI8mXT5qBbraFD8Sz8p9YTra24/zpc7qZ96/bqaOinYcVRqKmt91tGgjmry1aMlu2+mJHaJV8cjd/fJC6vbNPCiziNvmA40gDqSuX9tTMjm+V69dBAxCo+KPPeMSyV+JKxRo1tOWL+5z+Uz+OB1J5wq0q9/42sgmOC8KH5d9Y3G18W+D6x/RUu5GRSpzr+w8VxlVqb5q82hBae7fqoDxxuvuVTxbdhwt6Sm6nPPf6Fp7uq+++slK1tv47NctdL6/n4W/GuT1mqOBgno0M5CtY1Ei8dYPB8XHyhRjwH7zILE1Zrug7KkV143FWAQOJCIESS863Uuu/scGTF1sHoex+L8SMD4W1Q6Ow3XhAWvj+vENeC1c/pn2kc0hWvC83HxMepaa2vqpdvALLUfQSgUSIzIufzxL/Uy/QKdiBA4PvnYJQvetA+yIICY50utfxHqK8ySlt60YhT7kPAAa89jsXgHGZwT14BEfNpkt6SlNg0ohnld5JLwN9fYlbO+4H3deHPT60VAQEUzcmvBwrXBiJP1ucpK9XvFua+4qul5//rfLvU54nnUN6EyGcEHAZuCF5uTk3O/ve3T9lV7JTE1QfoM7y4Hvz6ifrVTs7s0eXyswP6GWlA3Ypa80wdIYkqC5H91SAq2WynBQ+7EvtK1R5rEJcTKsv9bI0ufW6VyDwPG9JYu6UkSnxCnXhuQwPMmD1CBC8cueeYLdf4je4qk55CT5MjuooZjjR65Oeoaq45XN1tfM/KcXJ/X52v/lGvHqetCvdNLv3lfnXPX2v0yclquxMTGWJ9BacM1IOfV2w6eKD6ufGOjem99T+4hmT3TJT4xzvrbfHVsIPBlv/E7VsI+3coxWb+6x6yM0apVLnn1JZe8+UaMbN7ksooHOpGjGPSNa9wqgT/zlEteejFGln3ialg+eK8xGKxZrfcNH6HPu3SJS555uvFYLJ4QEG79L7d0tWLsp8tdMu9ZlxQXu6xckQ4O5vj8fS75aKl+vOoLkbOniSQkiCx8t+n5ANd7+506WL1vXdtT/6uvN8UKBv2t3FKatca5gnH5lTpI1FS75MknXPL2Apdst74Sk63PMblL0+uprHSpz3HxIgRXkfQMl/S0fvMG54qce75b0q0AjecpMAH1oyk+WGpvtR0UJzybvsuOlttbjfqO6K7WO1bnNzl29/oD8sKct8PSrJzdJ0OtUUwzUARC8clb90E5av2ftzY1KSateXezWmf11ucK1IQJOsuP3AuKJw/cHyOvWEHGMwdhIEEY/QbohNyatDS9PnpEr30xuQ547h8u9frI7fTpq3bJ4cN67a13b73Gtfsy2cqUIsiguPKOFQiMxR/qtSnOBMqz9WzJ4sbclnmvzV0PoMiEzxlFLgRsXF9zFd3UsoACTaWVO/B00EciC1RFSaW91bzULOtnx1K434/aPAepOiGv+hXU0XiLT4xVaxT/UBdllmFnDFT7zfOBOnpUJxIkuh/+qOVKSyQotO4gcaD49OsHdDEHuaLmgg6agKGlOokZM3WCe/nFpnUbqKOB4maqn8aM0+sdO3yfG/VIsOlLvTaCqZT2lK1jvgoonu/LVFyXlvk+PwIqPt8Hf18vsy7XOS3k1tautg+ggLQaaJBAhk/RCWSgVazBY6w9H4ezn0x7qq0+Mai0BJXE3ksoUMmLSlkEEEAFLoIH+r74qkNABSp+kVHngISGoISgc7sVpLyDjQlYpp7GFyQ+BCPvRItzofIW9jUtwTY4ZYx+/u231OoEiVaRCo4f12sDrwlI5MEwLU7eAQ6VwnD4kF6DZ3C55fuNFeT4vPE5oqk8HM3yHVGrgQaJAy0wgMpMPMba83HXnh75dAeUFepvnylCtRfT2uUpPinO3mpUU6UrwdFq9b+3vXzCEkpPZfzCI4D87Mcxqi4DiR6JHwEEPXS9IWeD4g2KWUgsOB45IhRVPPWwfytQUdocFMEgP7/pMZdcqnM54Cs3hOKLyREEmkMxOaHmimSt6WMHFO8md5OjQWdDAxXVCC6JiboI968XXHLvL2LU5+2reEr+azXQIGGgAtRsYzGtTuaxd9N1W9u7qUCt0YqDilZ/7PtS/w2CQ3OtPEX7dWtZ7sR+ag0o3pjA6gkVuzDjrqlqDTgvmuW9FezQlRyoKDbFJSegLgMBBAkCCaNQNw4qJifgCYmlurrlBJOa1vTvPHM+Jnfg2fENOSnVktNCTshISGg8V3PFtyFD7Q0L3gNyQqgf+fB9e6cH5MLQ8oZWoebO11wHxOxsvX/HdrVSf48gi+D90G91F4GWipAUGL/udTL9ShBU4Mp7z1eVo+axgSCAlh4Didz0jTFN3WsXblEVuqrIZeWGELQ8K3Ob248EjkADqCsxvZRxfrQ6+aoQNteN18Y14FhsmxwFgsDUb49X2+YacTya85Fbwz5zbvShQesXmNfHsajMxmfhfb1ojjc5P8/rxWfy4ZOfqYpspyDRoE4GEABMLgWJDjkL5GrQjOuZu8Df3PMr/bz5GwQGNIMj9wRI+ChSAM4ByB2haIEcAhI+9qMlzLNC19e5cS04xvTaxX1QqAsBz3MDEr/n+QzPe6wQbL0Dg/kcEKjMezBwmwXceXurv7XUBvz+lM0vOqAy0wQOTykZySrxmQUJW+23EpfZh6byYKCZGDknJGz0nzHnw02b1T4qZAFBDcfjOsyxnhDwcE4EAlxjYkqibPp4e0MFNfZl9tLFQtN5D5+DeX0EpK9X7lHPe3v9D4vVuUx/H3O96E+TnOZsX3i0OCH3gkSNVioUrbCgbwqCgneQATxGBS8SufmbBKsIgc5yBuonUN+DhOsZBFC0QEc8vB72V3jVs+DcCBSe596/39WkfgQBB+cy58CC94AA4ivIAG5pwLXgvL5umRiqfxfUTZyeTEtUsPU+FDiOsEdEjmO+kYgcx0BDRI5joCEixzHQEJHjGGiIyHEMNETkOAYaInIcAw0ROY6Bhogcx0BDRI5joCEixzHQEJHjGGiIyHEMNETkOAYaInIcAw0ROY6Bhogcx0BDRI5joCEixzHQEJHjGGiIyHEMNETkOAYaInIcAw0ROY6Bhogcx0BDRI5joCEixzHQEJHjGGii2KD0enlsynFZOqtENl1zTKb1rrWf6djwPvF+V15Zot7/uJPq7GcoUsXm5OTcb2+3mx6ZIi/fkyB3zIqTrflu2X3IbT/TsodujJdHbo2XvifFyKJ19fbe4F08wy1XXiVy1TfccuHFeklJFdm8yWUfETmQuJ47p1yGZdZJSrzIhqOxsig/Xg4cP/G3I9jPN1JlJbllSEadZCa61fu/YlC1lFa7ZN3ROPsIijQRkaM5bVis9Mp2SZKVYC4YF2vvDa/vfs8t0y9wS4+eTRNhcrK94aCRI90y+3a3/PEv9fLoX/XSEuRknphabgUYt3y4L16mvJ4u3/wgVVYf9v3ZOfH5rp+bqJb2gPeJ9zvxlXSZuzFJ7ZszrrLT5OiiUUQEmtdX1MmS9fWyYZdbHnuzxt4bPkjoo0brAFNjvfyG9S5ZtVIva1er3Y65/ga33PJ96xd6qFvirUDgjztHV6og81lBnNyxrIsUVrac42rvz9dJczcmyrwtCWr7thGVak2RJ2LqaH70RI1c98dqOVhk7wijMePsDcvLL7rk6Sdd8vw8vWzcGJ5i0+7dLjl4wL/XOq+PDhYP/sf/7FZ7fr5Oe3hNspTXuGRUdp3K7VHkcQ0bNqzZAjvK9u8/qLPH0++tOuFLuvThBMlKc8ntj9fIRxv0Pxh/c8fMeDl9uEs9V2mliXU73PKrf574JfeV9b7v+Vr1C+ztxnNj5dqzdBEA51yxuV7KrR+wGafGyIIv6uWe54L/pUauYsJE/THcebvv2DvnHl2sQjB4+KHGgGCKOcj9IDCBOR+O/fwzkXPPd0tqqkhZmciny13yzoLGv+/f3y0lJSJFRS6/rgPFg7lnlqs6GRQfWuLv54u6LnyO//qozvr/uWTy8BhVzNp/1K32PbdIH3/Z5Fh54PqW60GC/V+Mn36WDJs0VjZ8/JmkZKRL3+G5Ep+QICVHi+TLZStlx/pN9pG+oVIYARhFKeRyKLK0mKNBYEB2G7zL9meNilGBpLDU3RBk4O+zE9SXtkuSS7Yf0H87Kc8lz96VoIKQJzxvFgSP5uAL/pMr4lSQwevlH3HLtNExMm5w8LkNJPBJp+klI8PeaTH7zBKKhAS3nDlVBxnAGvVAnudFTgZBxl8jMnWiX3Ok9boWfz9f49ShMepzxeeLzxmfNz73UQP09RWVNZ7P8HwNLPsLQ8tR9ModIINOGSElRwqlorRM0rMzZfKs6ZKRk2Uf4duWYv15pMUzRxOJWi06rfhKf7GnnNz0i33F6frxup2NXzrkOgb31MFg5m+q5PIHq9Uav4z40n7n/Ka/hnjeLPhyN+fqKfq1UM9w9hx9PHJYWenBB5ozzxK59jq3WlA/Yph9ZglFVrb1xU/XuR0EFGPCRHsjCIEkJH8/X6N3js6d4nh8zuZH5tqz9P8NPyjmfIZ5bJb/eevE3Ggg0q2A8v6zL8rCp+fLq48+JQW79qr9ueNGqXVzNhXp78jQrgw0kajVQPPyMv3FOWVQ00R9ykD9+Kn3Gmv6TTD6dLNVbLCLSVgvWKnPgV/MYJhf1N+/2PizjPOi+BTpUOeDItUjf3KpohOkpel1pEER1zN32h7N4Ad37pXDe/fbj6xcVMERe8s/KXHhv2ZqXaspHwn68y1uVWZHjgWQ8FFsQk7F/OpBjvXrDV9sbRoA9gX2XfEJuSQTvAzU0QQLiR/1IFiQ4zDMPrOE6vPPGs9dVto0WEeaw8faP5GWF5fYW8Epr43sz7iz8islLfuyafFpxql6/dHG8OUoKhtz6xEjMzP8CbO0Rv/L0nSLLtlM3dXW4tB/HKjt+fVfQasDKhNN8emskfrPFnzRtDy+57BOeN5FpD459kYIUMfjLUX31QorVPAaY8baG2Fk6iJy05t+9uGG3Cx4V/C3l7yu+vPYX85AE4n8/q+g/I7i0y++oVt/0MLgWWyC1V/rHA6ats0XEOsZE3Xi8C5S+ct8qf/7+4092nBeNMOGGyp40YsYTdG4ZcFAyxVasgLlT+uXpyX5cRHRZ6TCzmF6V/C3B9ySMLm7ritcdtDPXo8UVn6nVFN8utxubVq07sRfVOR8EIBQf/PmrxPltXsT1BqBCcHimQ8aK45/eGmset4saPGA2y5q3I8mdEBfDkDTK/ru4Dn079mWH3jCDta2bfaGBb2I0d/lq82NuSy0XF17nf0gAP60fnlbUaAT973jK9Tal0A+32CYvjjo22T+J1he+Fn4y3S3Dtc9pdG3aEdJ+H98qHV+/1cQRFAhi1wNmNYob/81t1p12jpe6VZN3YDK5Jseadphr1dWjHreLOa8CEpmX2aq/nu89p9frVXBCkEMz+GcLzVzDU5Y/KE06blbeFTk1ZftB2H26Poklas5zfoVR0c1/KJ7C+TzDYav/wmWcJs9skpuyNPZqz+sDcONaRSUFnsG04lQ1EHzdLhuTWgO7t42N1YCfs2R0Jq7sbIjwXu/e0yFKjqa9//w6iSZt5U9giMV85kBQse79g4yYO5gxt3bhyp0nU2GR0V1R4b3ifcLeP/XL0plkIlwzNEQkeOYoyEixzHQEJHjGGiIyHEMNETkuIArg9Fv4erBVdItWf/ZiPke3VmJiHwIKEdzw9AqK9BUqiCDfhtYiIhaE1CgOdseZR6DQaMPR2tDSRIRQUCBxswZZIYqICLyR0ARA70wYfxJnD+HiPwXUKAxQxTgZj5fN/IREfkScBmo3M7MDEhrv7FQiCi6+BVocLcsmrX/fX5ZQ4tTZ7hLmIjahl/9aBBgcLcsAszbu+N5pywRBcSvQIMcTb/UOpk5oEbVz+wsiZFL3onQOUOIKOL4VXRCMen1nQly85IUFWQGpterqVmJiPwRcGUwggysY69gIvJTQIHmsoF6bNbPCuKksLL9R5kjougQUKCZ2E0Pn7g0v/2n2CCi6BFQoOnZRRebeqWwDw0R+S+gQPPmLn0LAqa3QJM3FiKi1gQUaNDyhGktzKj7ZiR6IqKWcBYEInJcQDkaIqJgMNAQkeMYaIjIcQw0ROQ4BhoPmDT+sSnHZemsEtl0zbFOcz8X3ife78orS9T7x020RG0p6gJNWoxLXuzdRZb3T5G8hNbvtxqfFCuPdEuSDQNTGxbs84bEhX5B5/WpaRhz51h157jNAu/TzGiB9//8uWVqxguithJ1zdsIEs/2TFbbc4uq5fFiff+VL9O6xMlj3ZPU9r7aesmv0W/179bf/Key8VcbORkEmZR4txoX+f5VyR3mXq7bp1wkY3oNkPSkLlJdVytbD++XucsXypHyUvuIpjDAGabUUdufpKjhW4lCFZuTk3O/vR0VDtS6JdXK1Ryuc8tjVqCpbiFM/r1HkqRbx/7ycKXcd6RK3iyrVQvO4ek3EytkWGaduln0to9TpKK2YwSZhy6+Tsb1Higul0v2lxRJamKS9EzPlFP7DZF3Nq+2j2pq5aE4SbMC7ik5GIOoXl7ekWA/QxS8qKyj+WNhldx1qFJK65uPMr3iXNInLkblZBBcWoLiAjz4H51TCqd/TCuX302qULmqtjQtd6QMyemhcjE/ev0f8uM3n1XrQ2Ul0i01Xa4Zc4Z95IkeXpOsBqFHz++2vi7qnKIm0HjWsbRU12L0tIIMmOJSc0yFL+oodpQ0/3GMn36WXPerO2X0WafJ5JnT5Rt3/0A9vvQHN8qg0SPsowKXEueWywdWy4KLS1Xxra3qRib2HazWi7dtaCgmYb3wqzVqG7malqywcndwUT8dhIlCETWB5vOKuoalpIWcTKBGWEUmWHPEv4G8euUOkEGnjJCSI4VSUVom6dmZMnnWdMnIybKPCMx/fZIiczcmqZELkYOYM65Stf6EmsvpkZap1jsKD6m1sWL3FrXuntbynOlbivXnkRbPHA2FLmoCzS0HKxqWzVW+v/wzU+PkqR7Jark7Ww+gPjwxpmEflp9lNR1YPdCElG4FlPeffVEWPj1fXn30KSnYtVftzx03Sq0DhUrnuRsT1RjM1y9Kldd2JqgpbUwuB0WrYAKOCSQbDuyWCX0Gq0phFKdM7iYhtuVK3k1FOtAM7cpAQ6GLmkDjj15WcWlScqxahifot4bKYLMPS569P1gHd+6Vw3v3249EigqO2Fuhw9jMv/w8Wc5+I71hVlAMBt8/iDm0TCBBYPnWuDNl6qARcsukc9W+QKBoRxSqDhVo0NQ9ameZWm46UKH2oahl9mFBjigU5cUl9lbbQ18eFJnQYdBUUKMlbHdp4P8mVAIbS77eKHuLj8pbX66y9/ivvIO0wFH76lCBJhilNfojSGunVlxMLYy+K29bxSR0lEORKcXKjKAINcMqTmHmiZYqqZtTUHpMrVFcemvTKtXqNH/tcslJ8W+aHFN3tbW4039FqA10+m+RqYvITW+fbvd/P7NcdZDD7BJo+cLAYhNfSVdFqGACjHGsslytB2V1U2tjcv88tUYOpyV5XfXnsb+cgYZC1+m/Rej52p59RlA0MbmXb36Q2mazgH68Y7Nanz4gryEXg/WFw8aq7S/2bFNrX5DLmtxdF72WHdR1RUShiIpA49mahAUtSYCWJbPPn/uemmP6jNw7PrT6m2CgaBRq7sUXUy+DWw/++7Kb5S8zb1JrdNZDpz0Uo5pz6/BKdTtGa32LiPwVFd8iz9YkLGhJArQsmX2pIbyTR9cnqVwNWnhw9zJ+0TuChxa9YuVsNkllTbX07Zqt9m08uEd+/d58te0L6osw+Dz8YW34e0pTx8Qxg21o8Xliarn6JQf8miOhocm5o8N7v3uM7iBo3j/qitqqGEfEfLENAQV1JOi/YmZ5yEjoHDEY79PMaIH3j46DDDLUlpijISLHMUdDRI5joCEixzHQEJHjGGiIyHFRWRmMvh5XD65Sg4jDiPktj61CRO0r6nI0GIEO9waZmQqwEFFki7pAc7Y99Oa8LQmq3wsWIopsURdoDhzXl2yGdyCiyBd1qdWMPDf+pMaBnYgoskVdoDHDOuAGyI5y8yNRRxeV5Q8M3g0DghhLl4jCL2oCDe4wRrM25j4yLU6d4c5qoo4gavrRIMDgDmMEmLd3x/PuYqIoEjWBBjmafql1MnNAjaqfwYRrmAuJiCJf1BSdUEx6fWeCGvoSQQaDeZvpbIkoskVlZTCCDKxjr2CiqBB1geaygXo8W0yshulkiSjyRV2gmdhNDzm5NL/luaOJKHJEXaDp2UUXm3qlsA8NUbSIukDz5i59CwKmBEGTNxYiimxRF2jQ8oSpQMxMBWb0fiKKXJwFgYgcF3U5GiKKPgw0ROQ4BhoichwDDRE5joGGQjIovV4em3Jcls4qkU3XHIvI+88wvAiuDevOCv8XfAYrryxR/y/cpBxOsTk5Offb29TO+vd3y8/muOWiS9xSWyOya2f73GJx8Qy3XHmVyFXfcMuFF+slJVVk86am14Mv63PnlMuwzDpJiRc1hMei/PiGcZ3D6fob3HLzLfpaB+eKfL1NpNK+RaXO7ZIrBlVLvVvkjV0Jal9ng9Eoh2TUSWaiW/2/8HmUVrtk3dHw9LBnoIkgl84SGTDQ+qfEinTt6pJln4QWaCadZgWuu3XiKyoSyd/X+vm++z23nH6GW1K9RuA4fMgl69c1/j1yMggyKfFuNY7zDYtT5Z9bE5sNMo/+tV5dx769IgMHibquc893ywfvNZ5z2jluueVWt8y8zC1TprolKVlk21b/PoPsbP2ZJSaJnNQNn6GrITDimm7Kq5buyW55cnPbj2Pkz3trb/gMXt6RYL9/l5zarVam9LRyOUVxsqvU+R8GFp0iyLat9oZl3z57I4xGjnTLqNG6W1WNlaPasN4lq1bqZe1qtbvBnaMrVZDBza13LOvS4g2uCHiAc27c6JIhQ9VD2b+/aZCZdblbykr16yVa6QH7/LVksUsefsj6hV6rz5lsBSlPK6zrxPW2ddHOn/cWaeZuTFTTFcFtIyrV2mkMNBHk889c8sifXPLUEy55fl74v6hjxtkblpdfdMnTT+rrwIJE5Om8PlbKsjz4H68U7UOXLnp99Ig+B4IIHD6k1zDpNJ1Yn/i7qNfDsfH6bpOAIDcDnkEbVh3SQ4pM6qavu634894i0cNrktUg/+hZj9yp01h08pOpAxgzViQ9Q+TG7zRm8Xv1libFCpOVxoLn11i5ge9+T+S6b+ssdb9+Yu3zffzk00XGTRDJOanpOcHzGpAImytmmONGjVYPFWyb18CCc3gXzUafIuq9wNNPNv8bhFzBJf1rVJ2MP0WRKWfq8371lS5+XXChqKLZR0tdDcU5HINE+8nHLsnNFZlsFd8qKkQWL2p8T+eeL/LZp02vGVC3dd50vD/rdXq5VdHzw/ddcuxY47GYB+xbQ6olxtqFIkRz5oytkNtHValjsP3gpAr5+dhKuXpwtawvjDuhaOjPe3PK+OlnyTnfulxc1ssMOmWEnH7ZBTLmnDNkwMg8qa2qkaKCw/aRvpkgU1QVIysP+a6rQQU6isi9UtyyOD+IyG9jjiZAqWl2HYY9QSbWEya6VULwBc+fc55YWWr9PAIEiieocA1WQoJbzrSCi+c1TL/A3ZCNDwQSKf4OS4bHFOZmn1k8jcjULRZrjvg38Jg5r8ll4DME5OAMFBXx2fz6Abfc8n39/PwXXKo4d9/99TJokFs+WKh2N8C1z77dLXf91C2nTXZLWqq7IRe0e3fTRL6jJEaNzIjEhYrR5ozN0ffPIYHhxt0CK7DgvjoMiP/bicftoxr5896c1it3gAo0JUcKpaK0TNKzM2XyrOmSkZNlH+HblmL9/0uLbz5HM7WnzgFOt3OwwWKgCRASdXWVyL+sRPD+ey6V3QcEm8xM/SXDc/hlNk4+2a2OfeO1xuNHe+Q2cLxZ/JGVbX050q3iwEpXkwQ1YaJef/LRideAbc/XWfCm3n/mWSLXXudWiwmGYPaZxVNLX0xf0uyK5a1b9BqfYeFRvW2guITPB+8Jn9VDv3WpohyCzo4dLnng/pgmxTcEoB/+yC0DBrrVe8Px7y3Uzx884PtzXGu3sJjE44u5SRfHzHgnTU25fPMSHdHNyI6e/HlvTku3Asr7z74oC5+eL68++pQU7Nqr9ueOG6XWzdlUpAPN0K7N/z//sDZZ5Vx/tzrJ3hMcBpogPPeMS/1ivbPApSohjaF5eo3n0AJhIKGYY01Z3hOON4u/UIeCxIk6nTJ7pAzzpUfw8b4GbHu+jnedi5NQSXvn7TFSVKRfE9sIHN7w+ej6GZGf/NytcjG+6qsQZG68WQe/5/7hkldecqlz9+mrdsnhZkoMK+16GjN4mjfPviWPb0pSuSDomqhfCzkib/6+Nycd3LlXDu/dbz8Sq8hkfYABSIlr+kPiCWN1I9hi1IRQMNAEwTMXgURhmC+6N8+KSfPFxDoUnkEJLTXBQiLG9WBBbsIw+8wSDsgRonkdOaivNrtUQM8brutnPItvM2bqYhaCrWfA7Ndfr4uL9dqbSSxn9PCdo8EsG4CiEmZENcz+gorITC7lxSX2VnDKa0P7LvqDgaaTMK0jbQEVq5DWhn3fEEiQi+ndW+diCgtF1b2gLgrFUgQfNHcjN9Ojp1sVTzyDLYIUKoLBMyfnDcUA1Lf4amkZ1lUHlOUHm1Z6mv1biztWcjF1beF4Xww0QUAlpJGdY29YWvqCt4eDB+wNy4iT7Y02YMr2uen6i9oWLp2lczEoduTn6z40CCa/uU839wPqbPoNUJvWMU1/hS+5VOdywDMAefv4gD5oio9cjamrMEUsw+z/yq487Sjy7AC6v5yBJiJdcbX+BUbLkWenMlQImlYcz2IUtrHPM0AZ+IXGc2Yx0Jph9vn6O3+giGcqn1HRixwCiiFYUEQJFooVbd0H495fxDTUxaCuC0EDdVuo+ygtVbul5JhIlt2QkuRRN4n/A3I9pq6qJei4B2f76Lg3yA6c67265Te3P5qh5W1yd/0ZLPPKwXlCVwY0898wNLT7xBhogoSsPJqUza8oetEiUZhWHGT5DWyrfdZz3lDfgOfMYiAwmH2+/s5fn61o/HVHwEKCxGJ6AAfLJNh7x1eodVsqtwPGsOE6KH7vNrcKmB++Lw09lPH5oNkbC/4PqF86elS/V+xrrvsAKjdVkMw6MTeGIhWYSmCjuf3BQKLFzY24sbE93Tpc9+xGUbKl94UOjmjmz8sM7QeFgSYI6M9hfj2xxpccvWgjEVpk0Gzs3eTrz69/Sx5dn6QSLKYnRqLBL2RbQQUvmqzRy1blVEpdqnUJOTTzHAIPmvkBzeHIDZn/C/ZXtJCONxTGqkTm2cpkbk1AwvPU3P5goeMbmD4s7cH0EQI0X7fEFBu3FIUWKjhmsJ/wy4ovPYSrFSbSIaE+MVXfWAlIjPjiItcQyVAMmDOuUt3vg6744YRZO1SHwE9SmrRsOQ3/q7vHVKiirvl/YZD/eVtb7tndVtfLFENBM30scPe2mZUiIyHyf7dMnQR6AYdbd3tesnBP54z/i+mMiP/X9YtSWw0yYK431KDIHI2fmKOhtoD6GQTls99It/dEtra6XqYYojAxLXS4fyoatOX1MkdDRI5jjoaIHMdAQ0SOY6DpJFDejvTZCpyA99meo/+TxjqaIKHnKcaUwQ1+BjqSoYNcpInW/i5tIdj+I9S2GGiCgPuEfHXhRw9h77FT2hrujTprmqgBn8ztDy01tyOBodMVEhn6T9y/KrnFgcSjRe+MLLls5Kkyumd/yeqSKl8fOSi/eOcF+1nf0CN29kg9GHe4O8x1diw6BQgJ3d+ZAtoa+vJgxDnc52OCTGsCma0gWkzoM1genfUdOXvwySrI+Ks9Rv8njYEmQIHMFOAU3PPT3HCV3gKZrSCabDy4R55duUTmLvcaSLgV4R79nzTOghAgf2YKmHOPW83y6D3TgJntwHOGA+RS/JnZAI4Vi7y/UA8JionmzHUsfNd30EFFqD+zFYQ6mn647S8pko+2b5JtRw5ITkq6TBk4TAqPl8mibRvsI1pmgkw4Rv8njTkaP2B4BTM2jL8zBQTKn5kNkJMxY9P6I9DZCoIdTT/ahHP0f9IYaPwQzEwBgWptZoNgBDpbQbCj6UebcI7+TxoDTQRpaWaDcAh1NH1v6L/S2tKe/XnCMfo/aQw0fkDiN7MBIMdhmH1mCVVbzWwQrFBH0/c2Yn5Gq0t7NjGHY/R/0hhowsRMLhdOTsxW0BGEc/R/0vhJOwgVvAZalcLNidkKOoJwjv5PGj9pB6GCF72I0YTtOVg2Wq6CmdnAn9YvTyiWsM9IUxjbOJyj/5PGQOOAbdvsDQt6EWNkPsxZZOgZDuwHAfCn9cubk7MVtJdLho+T3198nVq+PX6q2odbEsy+2WdcqPb5Eu7R/0ljoHHA4g+bTjSPidBefdl+EGZOzlbQXk5KTZfcnB5q6WUFGEiOT2jY1yfDnh7BS3uM/k8ab6p0EIo6aJ4O54T6vvDu7fYb/Z80hmsHmXmI2lu0zlbQFtp79H/SmKMh8gGdCaNptoJIxxwNkRfTQhctsxVEA+ZoiMhxDNlE5DgGGiJyXNQUnTCKPZon0SfklR3xYZ+cnYiCFzU5GvRwRf8PBBt0ukL3cCKKDlETaDCwNvqC3PO5zsmMzeGNgkTRImrraDiWCFH0iLpAc449IttS9tgkihpRF2jMLf4L9nA0J6JoEXWBxtwYR0TRI+rmdcrrWq+6iM/oX20FHZE6t0sOsKs4UUSLukDz7p54Ka12SWyMS67JrZYhGXXy8g4Wo4giWdTd64TBmzDNK/rUvL07XjYWxXWKcVWIolnUBRrcvg+YqoOIokPUVW5gjBDgYNtE0SPqAs1ye+T6i/pxTmSiaBF1gQbDMYKZhJ2IIl/UBZq+KbzHiSjaRE2gQWsTRqafM65SPV5zhC1NRNEiagINbj3AaPaoDJ63JYHj0RBFEY4ZTESOi7o6GiKKPgw0ROQ4BhoichwDDRE5zq/KYM5AQESh8CtHwxkIiCgUfgUazkBARKEIqo6GMxAQUSACCjScgYCIghFQoOEMBEQUjIACDWcgIKJgBDQ4OWcgIKJgBBRoOAMBEQUjoLu3OQMBEQUjoEDDGQiIKBgBVbBwBgIiCkZAgYYzEBBRMAIKNJyBgIiCEVCg4QwERBQMvwINZyAgolD4FWg4AwERhYKzIBCR4wKqoyEiCgYDDRE5joGGiBzHQENEjmOgISLHMdAQkeMYaIjIcQw0ROQ4BhoichwDDRE5joGGiBzHQENEjmOgISLHMdAQkeMYaIjIcQw0ROQ4BhoichwDDRE5joGGiBzHQENEjmOgISLHMdAQkeMYaIjIca4pp53KeZ3ayYjcfvZW63736xvsrdZd/u0H7S2iyMAcDRE5joGGiBzHQBNheiRUyPd7fCUPD1gpj+cul6tzdtrPiGzfeUDOvPTn8oO7/ybP/XuRFBWX2c8QRbaAAk23DLf866fV8s79VTJ5WL29t/Pp3adWfvyLY3L3fcVy2hlV9t7Qndt1v8zps07Gph6VrnHV9t4Tbdi0S556/j2Z+e0H5IvVW+y9RJEroEAzLrdeume6JSle5OyRbRNoFv+uSi3RZMKkaunSxS3x1udwytjmA0IgBieXyqVZeyQppk49/rS0u/ztwAj5pKSHegy9e2XLs4/dJXPuuFp69chS+37y66dVTocokgUUaBb+J1aWb46RzXtj5OkPYu29nc+unY3v/eCBtvkcrs7e0RBk/pg/WuYV5Mr68kw5WJ2s9kFSYoIMHthTLjl/ovzlge81BJs/P/6aWhNFqoDraH71fLzMfjxeDh1z2Xs6n3WrE+WZJ1LlxedT5I1Xuth7g4d6mQFJur5lTVm2bK9IU9st6d0zW274xrlqG0UpLESRyq9+NL6KNv/v1TiVw/H0i6tq5fyxdfLaZ7GqPme8VdRCMaugyKX2vbhMH3/h+Dr5+RW1ars5H6yJld+/HGc/8s8p46rk0ssr1PbKzxNljPUYXvt3ilxwSYVkZNbLrh1x8vwzqWo/3PvbYntLpKZG5FBBnOzcHidLP0yy9zbyPNbYsDbhhGAz68rjMmpMtRwuiJV1axLk9KmVqqh1/LhLVq9MbDi36UczI2uvtexR2yguISfjzVc/GlQGo54GUJxCTgfYj4YijV85ml0Froal0kqMrRk7sF7OGF4vBwtdUlwuql7ntotqZXhfXa9zrLzxfIbna2ApOGY/ESQEGdShYJlxxXEVZGDAoFoZmuf7TeBYVPROOatSrv9O6C06CQlumTipSgUZwBrnRkD0lBzTGHR9BZnmZHZNlVEjBqjtDZuZo6HI5VegufmxhIYFwaM1PbLc8st/xqvjr3goUdXpwGWTdGJf8VVMw/kM89gs//ggsNyMN+RMtmy2IoelvDRG5TyM5JTGiuy3XktuWJZ9lCTHivS1IiB5BwTPY/2B4NYltV69dv6+xvcz6pSmgW5wUom9Fbh+vU+yt4giV8B1NP7YtCdGBRNj35Hw1+esXhkvW7/SiRsVtp4VuJ5Q32IWFGnmPd1YrBowUFfOGp7H+mvhgmRVtEKdDopOkJLCuz6oc3Ek0BwtiY6K4oyMelWfcvuPS1T9C5bbfhR87sIXz6CEnBVRZ9Spv/nXfLtcVdqa+htAPU24ba9Mt7cCt2bDdnuLKHK1e6BBixSglSqcUCF8UnddNEJdzoO/6tqwhFthbWOuZ3RKkb3VOrQ67T9YqLZHDdeVwkSRqN0DTYXdsfabU5vWhzjNs0K4pER/DChKebY2paXXq1YoQGBC5bBZDBxj9pljA/Xl8caWpslpBfZW6z5dudneEhkzcpC9RRR5Wg00N59fK/+4o7phQYsS3DitrmFfKPc9LVytK2kvP61OXr2nquGcc2/zox09BLu2x6t+M4AmaNTP3P7TEunWo071fwG0PH3n+zrwTDu/UvXRMYuBY8w+3JoQDPT+3VWpK6Fxn5M/uZr8A0dl3ouL1DaauNGBjyhStRpoumdYiam7u2FBBzy1P7NxX0YIrSjoxPf4u3GqCNU1pfG1nHbsWIzqyGeCCqBpe8Groff0DcZLRwdJZb2+lh/03CQ3dP9aBRz0GjYqq6rVfU1vf7BSfnzfkw3Fpp/cdrlaE0UqjrDXjrxH2Jucfki+mdN4zxMsKu4lLx0ZqHoGI8jcdMcj9jPan3/zXTl1XJ79SGPPYIo07V5HQ41WlHSTh/edou7cLq5t7GDoDUWlW66/QN78530nBBmiSMQcTTvimMHUWTBHQ0SOcw0bNow5GiJyFHM0ROQ4BhoiclzARafZI6vk6sFV0i1Z/9mI+RlqTUTUnIByNDcMrbICTaUKMhuOxqqFiKg1AQWas3vre3nmbUmQb36QqhYiotYEFGgOHNeHl9awaoeI/BdQxPhwn77RafxJwd2lTESdU0CBZkl+nJTXuOS07rWSlcTuN0Tkn4DLQOV2ZmZAWvBDQxBR5+JXoBl3Up1q1v73+WUNLU6rD7PFiYj841c/GgSYUdl1KsC8vTte5m31fxYAIiK/Ag1yNP1S62TmgBpVP7OzJEYueaf1aVuJiMCvohOKSa/vTJCbl6SoIDMwvV6m2X1qiIhaE3BlMIIMrGOvYCLyU0CB5rKBevDtzwripLAyOiaJI6L2F1CgmdhNj2W7ND+0ebGJqHMJKND07KKLTb085kQiImpNQIHmzV36FoQb8qpVkzcWIqLWBBRo0PL08OokOVThUv1qsBARtYZjBhOR4wLK0RARBYOBhogcx0BDRI5joCEixzHQEJHjoi7Q9MgUWfhAgnzxaKKcNYpxkigaRF3z9mWTY+WB6/UtEAu+qJd7nqtR26FYP1ePrzN6dpVad0YT+gyWS0aMk8HZPSQ5PkHt23hwj/x77afy1aF89ZgoWFGXJXh9RZ0sWV8vG3a55bE3Qw8yJHLJ8HFy9zmXycge/aSiplq+PnJQrfH4nnOvkN4ZWfaRRMFhhz1LZ8/RDOvWW+6aOkPe/HKlvL15tdqXntRFfnHO5ZKb00NeWrdCXlz3qdpPFIyoCTQmGHi67/lalcPx9NCN8TLj1Bj510d10iPTJZOHx0hSvMj+o26177lF+njPIlhzQimazf/fu6V3z2y1XVpWIXvyD8uC979QS7A2XXPM3mre7E9S1GwVbWH2GRfK2YNPlrnLF8rS7V/aexthHGnMXPrazgT55efJ9l6iE0VN0Wn7AXfDUulH2j91aIxMGx0j+UfcUljqll7ZLvnJFXEyaoAeR6eorPF8hudrYNlfGPxd6sUl5ZJ/4Kha4OS8fnL37VfJbTddrB4Hw0xD3NJyrLptxglCcWlSvyGy/1ihzyADU3vqf8T0PizCUsuisuj02r0JMrinq8UcDYLRz56ukY826GDxws8SVJDxlUsJR9HpJz+4XC67aLLK3Vx87a/tvZEFwWVITk+Z2DdXRvXsJxsO7JEnPvtASiqP20c0hbGk7x5TIf/6OkHdcEvUnA7bPrxuh7shyMDuQ+0bT//8t9dUkElLjdwixmUjT1XFpVP75dp7RNISk+ytE2Esacy/ziBDremwgebwsfYNLLkDe6li0u/vvalhqaqO7CIG6mKunvdn+dXC+bL46w0qV/P7i69jqxOFjD3eHHDdlWfLE3+ardZTJo1oWHKy0u0jgmMGG2tpQXEmVOg38+zKpbJg039UnxrkdIhCwUBjQYsUoNdxW7j5W+er9QuvLJUzL/15w2IqhoNlBhtraclIaLuc3KEy3crVJ0O3nhEFi4HGUqEnd5DvnN82zcIJCfFSUlYhjz/7jr1HZMb0Uxuau4M1Yn5Gq0swTdsoGqHfjCc8vtzOyew75jtAYm6vOWMr5IahnbdHNfknKlqdfnhprJx7SuM8Ur1zXA19Y0yQePSNWlX5a1qdvFuXmtsPN54bq5q+AU3hRfZQyMet9HPdH+0XCMA7//qNqvT9csseKSouk8yuqTJkYE/Zm39EBltr5Gx27imQXzz4rP0X7eumiWfLJcPHq6bs4zX6/aKjHqCH8A9fe9pny5MKMnnV7EdDrYqKHE2vrBjVnG0WBBm1P7txX2Zq8P1H0Invz6/WqsCVldZ4zmD97Zm3ZfvOA6rvDOpm+vU+Sd5ZtEoOHCpSzyNnM7Bfd7UdCXYVHla3HfSycjYIMFhM/5nmggwM7apb9bYUMWNMLeMtCBQ0VD6jXqgteyNTx8SfIgpad3ueLwYZag0DDQWtW7JbTb1D1BoGGgrKoHSdmyk4zq8QtY51NETkOP4cEZHjGGiIyHEMNGGA+ozHphyXpbNK1OBV6FEbDPwd/n7llSXqfG1xXxNROERlHc3FM9wyerRIj56Nl/7Jxy555aXIawFBMHhiarmkxOtrxeBUf1ibrIZYCJQZ/wWBy5zv4dVJMm/riaMPEkWSqAs03/2eW0aNPvGSV610yfPznA00I0e65axpIgMGuiXe7p185+3NZwoRENCpDUHhw33xcv+qZCmsbJtrNMNoqm12mKMIF1VFJyR0E2RqaqzcwXqXCjBY1uoxtR1z/Q1uueX7bhkytDHItObO0ZUqyHxWECd3LOvSZkEG5m5MlHlb9IBTt43QAYcoUkVVoBkzzt6wvPyiS55+UudisGzcGJ5i0+7dLjl4wL/XOs8eS/fB/zhzw+HDa5KlvMalbgMw/VqIIlFsTk7O/fZ2xBt9ikiv3nr76Sd9x8g597jlqm+4ZcxYkWWfNAaER/9aLxde7Jack0TWr9P7kUu5+RZ9LHIpt9zqlpmXuWXKVLckWbFh29bGvz9WLPL+QpcsWeyyik6N17HwXd9BBxW3l/SvUXUyT25uuQ4FMyb86NZZahybq2dOkTMnj1T7t25vfeI2E2SKqmJk5SHfxScUs547p1x6pbhlcb6f2TGiNhTxOZr+/d0y6TS9ZGTYOy1mn1lCkZDgljOt4JKaqh9jPf2CpudFTqaoyL+cDIzI1C1Ca460XukbyowJW4r1+dPim8/RcLYCam8RH2jOPEvk2uvcakH9iGH2mSUUWdlWQk3XFcoIKMaEifZGEFpK+N5u++n/yDW3/kEtmCHh9XdXqP0zL5ik1i3ZVKQDjRmywRe0ciFn9bvVzQ80TuSkqKqjcRLqfFDX88ifXFJmD3yVlqbX4RbMjAkpcc0HW85WQO0t4gMNEj+akLEgx2GYfWYJ1eefNZ67rNT/IlJbaIsZE8prw3vNRIHoFDmazMzQilbBKK3RH21aK5mIUGdMMHVBW4uZOaXI1WG/najgNdCqFG6m7iQ3veXbBEKdMSGvqz7//nIGGopcHfbbiQpe9CJGEzZuWTDQcoWWrED50/rlCT11/enjEsqMCVlJbpncXd83texg883WnK2A2luHCzTbttkbFvQinjDRLV9tbqy/QMvVtdfZDwLgT+uXtxUFul/LveMr1NoXVPqimPT4n36o6mawvuv7s9Tg5oA+Ntjvy63Ddc9jtCjtKGn+XzmpW42arSAvk536qH10uECz+ENp0nO30CqBvPqy/SDMHl2fpHI1p1m5DtxtjRyIt2BnTEAnPAQPQPN1SzhbAbW3DjvCHoo6aJ4O160JzYmEu7c5WwG1tw77E4eOd+0dZMD0YcHd2xjIGwk+2Glr8Xf4e8D5rl+U6tcQEZytgNobxwzuBDBYFoLc2W/412RO1NZYaO/gTIsXZyug9sQcDRE5jj9zROQ4BhoichwDDRE5joGGiBzHQENEjmOgISLHMdAQkeMYaIjIcQw0ROQ4BhoichwDDRE5joGGiBzHQENEjmOgISLHMdAQkeMYaIjIcQw0ROQ4BhoichwDDRE5joGGiBzHQENEjmOgISLHMdAQkeMYaIjIcQw0ROQ4BhoichynxLVsGJiq1qN2lql1R3L7lItkTK8Bkp7URarramXr4f0yd/lCOVJeah9B5DzmaDqwhy6+TqYOGiFJ8Qmyt/io2jeyRz/5zQXXqG2icGGg6aCm5Y6UITk9VC7mR6//Q3785rNqfaisRLqlpss1Y86wjyRyXlQEGhRtzPKzrETJS4iVp3okq8fL+6eofZ7SYlxq37t9uzQc80BOotpvjE+KbTinYR6b5bauCfYz0vB6+DtPvvZ7nqO168VrYP916fFqP57H4xd7d5FpXeLsowI3se9gtV68bUNDMQnrhV+tUdun9hui1t5mj6ySTdcck99NqrD3EIUuKgLN5xV1aoG8hBgrccZL73iX2pduBY8bMuJlZmpjony6Z7Lah+dwTEm9Wy5Pi1f7TbApq296XjCPzbK/1jooCObvwZ/rBQQV7N9cVS/7rNcdbv3dY92TpFdcY3AMRI+0TLXeUXhIrY0Vu7eodfe0DLX2NrVnjVpP76PXRG0hKgLNLQcr1AJIsAgWF+09rvbNLapW+5FrACRgJNLN1fVyoX0Mjn2ttEbtNwl8S3Vdk/OCeWyWN8tq7WcCY/4eWrteY3hijFyVr/8Ox35Yrl97Zmq8WgfKBJINB3bLhD6DVaUwilMmd5MQ6zu39Ie1Vs7raKz8bnWSvYcodFFXR9MnLkb+WKgTKyw53jRXYoobvzpcJaVWTsZ4vFj/zQSvoo/TWrteY5EVWBD8jC1WoAyFCSQILN8ad6aqFL5l0rlqX0tWH46Vb36QKq/vbCw2EoUqKiuDmyZInTP5Y2GVemyKRtO6xKr6D7OYnIFnPU24tHS9xv7atu1lgEpgY8nXG1Wr01tfrrL3EIVXVAYaf8zOTDhh6UwKSo+pNYpLb21apVqd5q9dLjkpaWo/UTh1uEBjiks3HahQHfC8F1N34gn1OdAeuR2nHKssV+tBWd3U2pjcP0+tTb8aonDocIFmyXFdZLg7Wzcr+6OkTgcn75YgT6sqdfHn+vTGylmcf1JyeOt8/PXxjs1qffqAvIZcDNYXDhurtr/Ys02tvU3rXStzxlbIDUObFu2IQhHxtyAgMf8sSxd7TKI2lamoZPWs/zDQZwbN2YCm4vwa/RbRsnN1/vET6kNQgYymZPA8Hrmjuw5Vqm1cx8u9k9U2ckAITrgetGbhtbBvcXmtquwN5HpRf4RiHVqjTIU1NLc/EH+ZeZP07Zqt6mtQlEJLFCqJ0Wlv9qtP2kc1pYJMXrW8tjNBfvm5fr9EoYr4HE2qdYVIsJ45B/MYz/ly35Eq+eXhSpXA0epjjkd/mrSYE/8IuaA7CipVsPA83hMCBI4xfVzQbI3XMEEL+9CiFcz1OuWhRa9YOZtNUllTrQIObDy4R3793ny17cvQrroYuaUozBdLHRpvqqQm/n1+mYzKrpPZn6TIkvzmi5JEgeDPFjXRvYvO0TDIUFtioKEmuiW75VBFx2l9o8jAQEMNBqXr3EzBcX4tqG2xjoaIHMefLiJyHAMNETnOr6LTyitLJCXeLeU1LnllR7w8vIYduYjIf37laFYUxKkxShBs0GsUvUeJiPzlV6C5Y1kXNUbJPXaX9LE5J3b7JyJqTlB1NOW17GdBRP4LKNCc01vfGb2UvUaJKAABBZrJ3XWgWbCHwzwSkf8CCjSoDCYiClRsTk7O/fZ2q/K61qtu6jP6V1tBR6TO7ZID7K5ORK0IKNC8uydeSqtdEhvjkmtyq2VIRp28vIPFKCJqWUD3Oj025bic16dG9al5e3e8bCyKU9NzEBG1JKBAg6lSYcR837McEhH5ElAFixmnxAwnQETkj4ACzfKDesDvi/pxXmYi8l9AgebDfTrQmIngiYj8EVCg6ZvCe5yIKHB+BRq0NmF0/Dnj9BxHa46wpYmI/OdXoMGtB5iCA5XB87YkcDwaIgoIxwwmIscFVEdDRBQMBhoichwDDRE5joGGiBzHQENEjmOgISLHMdAQkeMYaIjIYSL/H5UFakkSALTuAAAAAElFTkSuQmCC;" vertex="1" parent="1">
          <mxGeometry x="-350" y="50" width="282" height="403" as="geometry" />
        </mxCell>
        <mxCell id="KoFQPGKLHCBhvZpColBv-27" value="&lt;font style=&quot;font-size: 30px;&quot;&gt;X&lt;/font&gt;" style="text;html=1;strokeColor=none;fillColor=none;align=center;verticalAlign=middle;whiteSpace=wrap;rounded=0;" vertex="1" parent="1">
          <mxGeometry x="585" y="660" width="60" height="30" as="geometry" />
        </mxCell>
        <mxCell id="KoFQPGKLHCBhvZpColBv-28" value="" style="shape=image;verticalLabelPosition=bottom;labelBackgroundColor=default;verticalAlign=top;aspect=fixed;imageAspect=0;image=data:image/png,iVBORw0KGgoAAAANSUhEUgAAASQAAAF/CAYAAADgsLTYAAAAAXNSR0IArs4c6QAAAARnQU1BAACxjwv8YQUAAAAJcEhZcwAADsMAAA7DAcdvqGQAADzuSURBVHhe7Z0JeFTV+f/fyUZCNgJhD/sSQEBAI2BZVVwQca9Y/KO11vr7UapdrNZatf6t1X9b68/+aLV2UauP1ooLRerGplhQkL0goCBKCGsCWUjINv/5nnNPZhJmMneSmcmdyffzPOe5d87cuXPnzpzvvO973nOOa9iwYW4hhBAHkGBtCSGkzaEgEUIcAwUpRhmYVS9PTDopKy8vle1zTsj03rXWM/ENPic+77qrS9XnH9e1znqGxAOJubm5D1j7bUKPHJFX7kmR712eJLsK3bLvsL2Q1sM3Jstvb02WPl0TZNnmequ25cyc5ZarrxG55utuuXimLukZIju2u6wjnAMa4bPnVciwnDpJTxbZeixRlhUmS9HJ0/9fWnp/nUrnVLcMya6TnA5u9fmvGlgtZdUu2XwsyTqCxDJtbiFNGJYovbq4JNXTsC4al2jVRpdvfdstF17klh49GzfWtDRrJ4JACL//I7c8/rt6VX71WL3MX+CWfv38Cwcso6emVHiEyC3v7U+WSa9nyXXvZsiGI/7vXSTu75aFHVRpC/A58XkLFmXJwm2pqu7ucVXtxkKMd9pckF5fUycrttTL1i/c8sTiGqs2eowc6ZZRo3Xjr/G8/dYtLlm/TpdNG1R1xIDwQAh9xSfZIxxDhrrlu7e7JSfndFG6Y3SVEqO1h5Lke6s7SnFV8xZcW9/fSLJwWwd5bmeK2r9tRJXaktjGETGk25+qkbm/qpaDJVZFFBkzztrx8MrLLvnz0y55/jldtm2LnLsGEeo/QAvOwSKXvPGaS158wSX79un3hDCdd4HabcQFeVpUHvrEvvnWlvc30jyyMU0qalwyqkudsh5JbBMwDwmxh3ce0mb5hfeeOu3HvPKRFOmc6ZIFT9bIqq36h4DXfG92spw73KWeq/K0nc173PKzv53eGPyZ/Pc9X6v+0Zty4/mJcv1U7XrgnGt21EuF5w9x1jkJsuTjernn2Zb/898wzy1nF+hbcMcC//p89z3anYNwPPKwV6TgYgFYUxAwYM6HYz9aK3L+DLdkZIiUl4v8+0OXLF3ifT2ss/zhIov+4a2DVXT/g/p6fM8L4JYsnFyhYkZwW5rD7v1FLA738cVVdZ7vzyUThyco9+7AMbeqe3aZPv6KiYny4A3Nx2la+l2ce8XFMmDUMNm1brN0zMqQnoP6SWJSklQcL5Wdnrodaz+xjvQPgtsQarhwsJpI7BLQQoKAwMwHTWMPU0clKMEpLnM3iBH4w/wU9ePumOqSz4v0a8fnu+SZ76cosfIFz5sCkQkEGsIPr0pSYoT3KzzqlumjE2TcIG9DDRVYJ+Mn6JKdbVV6MHWmtIaUFLdMnqLFCGAL98z3vLDAfMUIlJQE/lwjcrQ4bDwaPBZk9/4azhmaoO4r7i/uM+437vuo/vp6Ssq95zP4vgfKgeLWWSjd++dJXv4gKS85IVUVJyW9U5aMmzFZuvTuYR3hn53H9f3ITKaFFOs067Kt+VQ3gElnNG4AV52rH2/e6/1xwooZ1FOLxuyfn5IrH6pWW/zT4sf9zRmN/13xvCloBIG4dpJ+L8RBpt2tj4fF1jmr5YI0earI9XPdqiBeYzB1prSGzl08DSRLWznGDQNnF1g7AZh+nvd9C/dbOxahNDi799fQO1dbuzge99n8GV0/VX9v+OMx5zOYx6b87z9Pt25DISMnW1b9fbEsefJvsuixP8qxwoOqPr9gjNoGYnuJ/o0M7URBinWaFaRXVusf2JkDGzf+Mwfox39629uzYUTr3zs87orlnmG7ZJ0+B/6BW4L5h/7ly96/eZwXbpvTQUwKLtdvf+1SLhvIzNTbQIyfoLc4fsXylotuqMC19rV22yI94Oj+Itm/a4/1SKS0+Li1Z4/0pOhfMwkvzaoEGv5HO90qpgALCEAg4K7B8jH/oiDXYw2Aj3c1For9R62dVgCry4icATGklgKRQLwIBRaMwdSZ0lo+Wus9d3lZcHFB+oFJPVj2bvTECBw50faN+WRZhbXXMipqo3vPSPgJ2upW/6ex2zbrHL1dtS16FkqV10twDP665FsDUgBM+sE7b7v8WkdlNfrrytQ93cTCxNZ2HW/9nwhpW4J+g+hlQVDUuG1TR+qXLPm4cbzgyyO6MTV1zfJyrZ1WgBhUU9J1TlxUQaDaMGastdNK0NN23wP1DbEsiJFvT5wvJlYyOKvxvY82sI5B046KtiK/k74fByooSLGOrW8Q8QW4bT/5uu7tQo+Kr7sGNnymLSZ0+ZsfKrazCnQjaurK2cX8+P/nO54LsMB50T0dbRCohluFrn1kWBvQUxcos7o5cJ5bvuNW5wVwH495XFzfnj5fS2xFYZIjcm4qLYu1aUdFW9A51S0Tu+tY5uqD3t8IiU1stWrjtl1p9a4t23z6PzQsKQgV4kuL7+8gr92borYQMIjKX9/1BsC/e1miet4U9PCA2y7x1iO1ACAXBqBLGrlPeA75UbsLQxeAlrJ7t7XjAW4V8ow+3eG1YmDdXD/XehACeXnWjgXO27Snb2i+9aTFmkNaBO49q1Jt/RHK/W0JJpcJuWHmO0F54c7o+5K3DteZ68jN2lMa/T8pEl5sfYMQGwSWYSUB0/vWlP9aWK2S405WuVUKAEBQ/KbfNk6M7NU5QT1vijkvxMvU5WTo1+O9f/NqrRI1iB2ewzn/EeAaIsHy93Q2taH4mMirr1gPoszjW1KVlTTBYxUgIRAWQlNCub8twd93ghJt5o88JfPytbn26KYoDDwkEYczRoYA3DJ020dySIkdMNrfDLAFsA7QIAMNsI0n8NnvGlOpXFbz+R/ZkCrP7WKGdjxAGzcEkODY1mIEzIh3jPY/XKljStk+Afd4Bp8Tnxfg89+wLINiFEfQQiKEOAZaSIQQx0BBIoQ4BgoSIcQxUJAIIY4hpKA28j6uHXRKuqXpl4x4yWcyIUIIaSW2LaR5Q095BKlKiRHyXlAIISSc2BakadaqDphUHTkwwaZQJYSQULEtSGbNLzMFBiGEhBvb6oKsWHBWV65/RQiJDLYFyUx9gUGd/gZ0EkJIawnJ/6qwjKP+mW03Fw8hJH4JKkgYXY3u/r/PKG/oYWsPo8oJIdEnaB4ShAijqyFEb+5L5shqQkjECCpIsJD6ZtTJ7P41Kn60tzRBLl0aZC0fQghpAUFdNrhnr+9NkZtXpCsxGpBVr5Z0JoSQcBNSUBtiBDYzS5sQEgFsC9IVA/TcxWsPJUlxVdvPmkgIiT9sC1JBNz1t6MrCtl/6hhASn9gWpJ4dtbvWK505SISQyGBbkBZ/oYeOYNkZpAKgEEJIOLEtSOhpw3IzZpULs/IDIYSEC646QghxDLYtJEIIiTQUJEKIY6AgEUIcAwWJEOIYKEgWA7Pq5YlJJ2Xl5aWyfc6JdjNeD58Tn3fd1aXq82MwNSFtRUwJUmaCS17u3VE+7Jcu+SnBx9OdlZoov+2WKlsHZDQU1DUFjRB5VRfk1TTM+XSiun0Mj8HnNCvI4PM/f365WmGGkLYgprr9ISbP9ExT+wtLquXJ43p8nT+md0ySJ7qnqv39tfVSWKM/5h88r/mkymsFwDKCGKUnu9W84Q+sT4ubsXoLJl0iY3r1l6zUjlJdVyu7jhyQhR++JUcryqwjGoOJ+LDUldr/IF1NW0xINEnMzc19wNp3PEW1bsnwWElH6tzyhEeQqpuR0j/0SJUsz7E/PVIl9x09JYvLa1XBOXz5eUGlDMupU4OGb3s/XSpr40OMHp45V8b1HiAul0sOlJZIRodU6ZmVI+f0HSJLd2ywjmrMusNJkukR5jNzMQdWvbyyJ8V6hpDoEHMxpF8Vn5LvH66SsvrAatQrySV5SQnKMoIINQfcFPDQJ9ryiiZ/mV4hvxhfqay0cDJ98EgZkttDWUW3v/4X+cHiZ9T2cHmpdMvIkjljvmYdeTqPbExTizkgEz/c10VIMGJCkHxjQM3Fggw9PWIEjJsWCBO4RgxlT2ngW3HuFRfL3J/dIQUXT5epX79M5vzku+rxFQtuluETzrKOCp30JLdcOaBalswsU25juGI3BX0Gqe3y3Vsb3DNs3/p0o9qHldQcazzWIrikrxZrQqJFTAjSR5V1DaW0GcsoVEZ4XDWw8ai9Cee698+TvPxBUl5yQqoqTkp6pywZN2OydOndwzoiNP7rg3RZuC1VzcQJi+TucVWqt6u1VlOPzBy13VN8WG0Na/btVNvumdlqG4idx/X9yEymhUSiS0wI0i0HKxvKjlP+G8nsjCT5U480Ve7qohciGN4hoaEO5c7OjRcoCLXBZeRky6q/L5YlT/5NFj32RzlWeFDV5xeMUdtQQfB84bYOao7yG5ZlyGt7U9RSU8ZqgkvXEmEygrO1aJ+cnTdIBbfhxhlrKSWx+WD19hItSEM7UZBIdIkJQbJDL4+bNj4tUZXhKfpjIaht6lDyrfqWcnR/kezftcd6JFJafNzaaz2Yu/ynH6XJtDeyGlYJxqIK/VqwBp4RHAjQN8ZNlikDR8gt489XdaEAl5KQaBI3goQUgFF7y1W5qahS1cHFM3UosLBaw8myCmsv/CAXCq4aEjNNoB09f/vKQv+KEMw2rPhsm3x1/Jj88z/rrRr7VMRJjyOJHeJGkFpCWY3++Jlt1LuNJcmR+/Omxz1DQiJctXSPcQPXbZbHjcNKL80F2wNxqOyE2sJN++f29aqX7aVNH0puur3lq0xsbdfxdv3zIG1Au/7FmVjJ4Ky2GS7xh8kVKhERq7mgpw8T4BUsylKuW0uEyHCiSltyAzt3U1vDxH75aguLqTnyO+n7caCCgkSiS7v+xSETuS1zbuASGWvounczwrYq8Pt7dqjtuf3zG6wibC8eNlbtf/zlbrX1B6y2id21y7f6oI5lERItHC9Ivr1nKOg5A+hJM3V2xrUFwuTc3HtW6+JLLQEuWWutIX+YuBGGjPzPFTfLY7NvUlskRSI5Eu5bIG4dXqWG0QTLzSIkEjj+F+fbe4aCnjOAnjRTl9GKT/H4llRlJaFHC6PdYSHEAw8vW+SxlLZLVU219OnURdVtO/il3P/2S2rfH4hnYREH8Oim6GeuE8I5tT2gh+upKRXKMgCwDtAg0RUf7+Cz3zVGJ2Kaz49YVrjcR0JCgTa5BwgPYjjI/zGrqmSntA+dxuc0K8jg8yNBk2JE2gpaSIQQx0ALiRDiGChIhBDHQEEihDgGChIhxDHEXFAbuTLXDjqlJuMHI15qfm4fQkjsEFMWEmZUxNgvszIICiEkfogpQZpmTTn73M4UlTeEQgiJH2JKkIpO6ss104YQQuKLmGrZZibFs7p6JyAjhMQPMSVIZroQDISNl0GwhBAvMef7YBJ80L8Fc00TQpxNTAgSRqSjux9rl5ketvYwEp+Q9kZM5CFBiDAiHUL05r5kjkYnJE6JCUGChdQ3o05m969R8SMsrIi1zAgh8UVMuGxwz17fm6KmfIUYYVJ8sww2ISR+iLmgNsQIbGaWNiFxR0wJ0hUD9HzPWEARy1ATQuKLmBKkgm56qtWVhc2vTU8IiU1iSpB6dtTuWq905iAREo/ElCAt/kIPHcFSPUgFQCGExA8xJUjoacMSPWZlELNaBiEkPuCqI4QQxxBTFhIhJL6hIBFCHAMFiRDiGChIhBDHQEFqBwzMqpcnJp2UlZeXyvY5J9rNOEB8TnzedVeXqs+PQdrE2bCXrQXMnOWW0aNFevT03roP3nfJon84bzgLGuFTUyokPVlfK6ZweXRTWruYTwqf/a4xlUqQzedH2ginr3EuFKQQ+da33TJq9Om3bP06lzz/XGQFCUKYP0ykXz/9/jU1Il/sdcmSxSL79p3+3miISB5FY8R85A+sT4uLMYBDcnvIlaPGS37XXpKV2lG+On5MfrD4GetZ/2CCPyyhpfY/SFfTIRPnQZctBEaO9IoRxGDrFpcSIpRNG1R1xJi/wC0XXuRuECOQnOxpnEPd8t3b3ZKTc7pI3jG6SokRBiN/b3XHuBCj6YNHysMz50pBn8FKjOyycFsHtXwWuG2EFibiPChIITBmnLXj4ZWXXfLnp7VVhLJtW+QaO0So/wAtOAeLXPLGay558QVXg1UEYTrvArXbiAvyPKrp4aFP0tQ2Xth99KAs2rJWnlu/yqqxxyMb09QiEcjwh/VInEdibm7uA9Y+CcLoM0V69db7f37av5bffY9brvm6W8aMFVn9gVekHv9dvVw80y25XUW2bNb1N8xzy8236GMhKrfc6pbZV7hl0hS3pHo0ZPcufdyJEy4pKhSpOOmSp59yKTetcL9Ldu4QmTZdHSJHDrsazgsQ0L20X42KGT29I3DM5NwrLpYp186S1I5pMmTcKJk4+0I5c/q5MujMEeJKSJCj+4usI53BF8WHZdnurbLt4FfSO7uzspRKqyrl7Z2brCOax4hRyakEWXfYv9sG9+7Z8yqkV7pblhfq8ZMkOtBCCgKsk/ETdMnOtio9mDpTWkNKilsme0Qow1qIF1u4Z77nhQXWNGheUtL4sS8jcnSP0saj9oLX3fvnSV7+ICkvOSFVFSclvVOWjJsxWbr07mEdER/sPK7vR2ZyYAtpSk9tWV5oWZgkelCQgjB5qsj1c92qIF5jMHWmtIbOXTwNJEsHxn2D02cXWDsBmH6e930L91s7Fs01OH9k5GTLqr8vliVP/k0WPfZHOVZ4UNXnF4xR23hhe4kWpKGdAt8f9ELCsvzFhlSrhkQLCpJDQEwKsajf/tol5dasKplB1jEYP0FvcfyK5YGtJTvANdu/a4/1SKS0+Li11zKQ/xOstGU+VHpS4D8RpERc926Gml2CRBcKUhAgEncsSFAFFozB1JnSWj5a6z13eVlwcUH6gcmDWvZu68QInCyrsPbCw4iXsoOWtux6r6ht/T0j4YeCFAX8dcm3BqQAmPSDd952+bWOymr0V5vJP/lGmNjaruP86TsRfisRAoFqA3rRwgHyoO57oL4hlgUxWrrE/z+9iZUMzuJwCV/yO+n7caCCP30nwm8lQiBQDbcKXfvIsDagp843udEuOM8t33Gr8wK4j8eONu7t87XE4A4x56YxnVPdMrG7jlutPhi4Ox+xrbvHVsq8oaesGhItKEhhZvdua8cD3KqzC9zy6Q6vFQPr5vq51oMQyMuzdixw3qY9fUPzrSct1hzSMZp7z6pU23hgzpivyWOzb1LlmtETVV33zOyGuh9Pv1zV+ePW4TpzHT1oe0oD//THd6tR87bn51DIow0FKcwsf09nUxuKj4m8+or1IMo8viVVWUlYfhyj3WEhxDpdM7KkT6cuqnTz7IOUxKSGuh6ZOaquKUh2hMgAdOs3h0kJ2FnC5hFtOLg2QsAtQ7d9JIeU2IGj/UMf7Y8ByXB1OQg3+vAvIEIgwbGtxQiYnBqM9jertWT7BNzjGXxOfF6Az3/DsgxbU490t9b/oxhFH1pIhDQBSZsQ72lvaJeQRA9aSIT4YHokD51k02gLaCERQhwD/wYIIY6BgkQIcQwUJNJiEG9x+momyD/CtWHbXoml1Vc4Y6RDQN7SnXe75ZJL3VJrTd7fFmCYy9XXiJr1EjNcoqRniOzY3vh68KPGrIrDcuokPVnnNy0rTJaiNggGm5k3ca2DBot8tlukypo/vM7tkqsGVku9W+SNL9rnSGMkxA7JrpOcDm71feF+lFW7ZPMx56U1UJAcwmWXi/Qf4PlCEkU6dXI1mv62JWBs25136UZaUoIJ3IKfD2Pvzv2aWzKazMPUdHpcWEYQI7OaybzlGfK3XR0CipGZvnf/VyIDBoq6rvNnuOXdt73nxGRzgabwDUaXLvqedUgV6doN99DVIKC4ppvyq6V7mrvZqXxbip3P1tbgHryyJ8X6/C45p1utTOrpsZpKkuSLMmc5SXTZHMLuXdaOh/1NZn+MBqGsqBLKaiZmGl6cE4miQ4aqh3LgQGMxuvxKt5oHCu/XwdNufGfDDAamX3nkYc8//iZ9zrQmI0Mwpg/XG26X0s5ncxpOX32FguQQMEEbZov801ORX9/NH6GsqBLKaiYdrZWKjh3V54DYgCOH9RZg5ks06qf+oCfEw7FY9CBUYB0BX3EH6w/rYTIYNBtO7Hw2J+Lk1VfostnAd3WQrGyRG7/pdS2wComvO2NMeBQ8v9FjXXzr2yJz/4825fv2FU+d/+Mnnisy7mxptDKJwe4KJea4UaPVQwX2zXugNF0RBdhZUQXAyrCzmolh0mR93k8/1W7fRReLcglXrdQrp5hj0Lix+u/gwSITPW5jZaXI8mXez3T+DJG1/258zQCxtwsuxOfzvE8vt3J533vHpVZqMWCyum8MqZYETxVcl0BgypEFo06pY7D/0PhK+fHYKrl2ULVsKU46zSW189kiRWtXizFi5LTVV2ghhUBGphVj8VkdBNOAoMH4A89jvTQzoRqEBG6R7/xIoWJnhRK7oDHjdSh2V1QJdTUTc15jteAeAt8pe+Gi4t7c/6Ce8wm89IKrYUK6gQPd8u5bqroBXDtmzvz+j9wyYaJbMjPcDVZV01V8MdXIXk9BI0SANxBjc+vUMWZmAGRrYwhJtzS3/N+Ck9ZRXux8tkjT0tVinLr6CgUpBND4q0+JWqQRszXCzQAQJTM5Gp7DP73hjDPc6lgs7miOH+1jveB4U+wQbIWSD1adfg3Y930fLL0NWrKiSqirmZiFCnbt1FvcQ0zJ4gvcNNwffCbcq4f/r0u5kBCnPXtc8uADCY3cRggVVuvF4pn4bDj+7bf0875Tv/iyyepRMo3MH2YgLo6ZtTRTDUq+eYVW/gF+XBs7ny3StHS1GKeuvkJBCpFn/+pS/4CYOtZ3LmszORqeQ4+LAQ3KHGtiDb7geFPs0twKJRCppteAfd/3ieYsBAg2YxEEs4Yc9iEwTcH90fEjkR/+2K2sIn/xNIjRjTdrkXz2L3qtOpw7r4+qkiNH9LYp66w4UkE3/zk4vrk5T25PbZjArVMH/V6wsJpi97NFktauFuO01VcoSCHia5Wg8RhMg2iKb4DV/ICxbQ2+4mVnhZJAoLHjelBgnRhMnSnRABYm0g5gkWGGTQh//nAdP/J1G2fN1u4dRNlXWPv209vjAdqjaVRf6+HfQuqboQUJLprvtCOm/lClM5tKa1eLcdrqKxSkdoDpDQoHkVjNBIIDq6h3b20VFReLig0hVmam6kUaAKwjLP0Et8hXlCFmCGgDX8uwKXA/EA/y17M0zJr8/8Mmc22b+nhbpcSpq69QkEIEwVRDl1xrx0NzDaEtOOjTyTLiDGsnDERiNZPLLtdWEdydwkKdgwTR+fl9Og0CIKbUt7/a9RzT+F/90su01QR8haop7xfpgyb5sZJMLMW4dgZT/6kVBI4XnLr6CgUpRK66Vv+jo6fMN3kPgU3Ta+XrvmEfdb5CZsA/Pp4zxYDeG1Pn73V2gGtpgugIWMPigPuDAteopURiNZN7f5LQECtCLA7igtgbYjNlZapaSk+IdO6s91N9Yqz4HmBFmVhac5hFD6b5SZAcaAnslibDKQLVxzLoaXTq6isUpBYAFwJd7eZfGVnNaDym1wquhgH7qs7zXFMQD8Fzphj0yiSBX2eXtWu81gKEDQ0XxWRkt5RIrmZSYQnLsOFaPL99m1sJ63vvSEPGOO4P0gFQ8D0g/nXsmP6sqAuUVoEgrRLTzqdbd3DlQNPVSALVtwQ0bgxyxQDXtsTJq69QkEIE+TDm3xhbNAZkNTsR9EChO71pV7gda6I5IrmaCQLV6MpH1rOyfMpcqjcNFp95DgJl1qdDmgCsK/O9oL6ymfa+tThRNUbfXjUzpAQN1JdA9S0FCYbA5AC1BU5ffYUzRtoA/9RoHCBavU5OBw06Flczgftx97gqNZ4LQyiiSVutZoLvKlZWX2HrIi0iVlczMTETZGVHG7OayeYwWVx2iaXVV2gh2YAWEgkHsbaaSVtcL1sXIVHA9EjGymombXW9tJAIIY6BFhIhxDFQkAghjiEmXDasloDuSuS+LNqTHPXuWkJIdIgJCwmZwchzgSghqQsZr4SQ+CMmBAkTySPn5Z6PtGXUFjkkhJDIE5MxJKfN4UIICQ8xJUjnWWOLVkYxc5QQEj1iSpDMlAlLvozelJqEkOgRU4JkBgYSQuKTmFqXLb9TvUppn9Wv2iNOet32tlhLnhASGWJKkP71ZbKUVbskMcElcwZXy5DsumYX/iOExBYxNZYNk4FhGWfkJL25L1m2lSQ5fv4dQoh9YkqQMB0CGPGSzzKrhJC4IaYCMJibBYRrcnlCiLOIKUEya2Zd0tf/Yn+EkNgmpgQJ02+C5tZnJ4TELjElSH3SOYaNkHgmJgQJvWtYAQGrRYCNR9mzRkg8EhOChCEjWDUBQe22WL6GEBIdOKc2IcQxxFQMiRAS31CQCCGOgYJECHEMFCRCiGMIGtTmih+EkGgR1ELiih+EkGgRVJC44gchJFqEHEPiih+EkEhhW5C44gchJNLYFiSu+EEIiTS2BYkrfhBCIo3tSf654gchJNLYFiSu+EEIiTS2R/tzxQ9CSKSxLUhc8YMQEmlsB4G44gchJNLYFiSu+EEIiTS2BYkrfhBCIo1tQeKKH4SQSBNUkLjiByEkWgQVJK74QQiJFlx1hBDiGGzHkAghJNJQkAghjoGCRAhxDBQkQohjoCARQhwDBYkQ4hgoSIQQx0BBIoQ4BgoSIcQxUJAIIY6BgkQIcQwUJEKIY6AgEUIcAwWJEOIYKEiEEMdAQSKEOAYKEiHEMVCQCCGOgYJECHEMFCRCiGOgIBFCHAMFiRDiGChIhBDHQEEihDgGChIhxDFQkAghjoGC5CAGZtXLE5NOysrLS2X7nBMyvXet9YyofdStu7pUHTOua531DCHxg21B6pEj8taDKfLx4x1k6qj2q2P9+rnloV/Wy68eq5fp57mt2tYDgfn7jHK5IK9GuqW5ZeuxRDlR7bKeFbWPOoBjnj+/XOYNPaUeExIv2FaWCcMSpVcXl6Qmi1w0TjeM1rJlYQdVYonJU0UyMkSSPfdh/ASrspXAMnpqSoWkJ7vlvf3JMun1LLnu3QzZcMR7n7GPuoJFWbJwW6qqu3tcVSMripBYx7Ygvb6mTlZsqZetX7jlicU1Vm37Y/cua8fD/v3WTiu5Y3SVEqO1h5Lke6s7SnGV1zLyx8JtHeS5nSlq/7YRVWpLSDzgGjZsWPj8jhAx1tHo+bHlesBty8wU2bateeGwC2JDYNbSTNlTat8dRjwJQhbq6whxKkEFyZ9Ldd/ztcpi8uXhG5Nl1jkJ8uKqOumR45KJwxOUe3fgmFvVPbtMH3/FxER58IYktR+IJR/Xyz3PhmaFjZ/gluvn6o/ywfsumTBR7z/7F5dcdY1bOneBdeOShb/zisjjv6u39kRqPG934IBLdn4qsnTJ6ULje6xh/TqXPP9c42NvmOeWswvccrDIJR+tFTl/hlu5eOXlIv/+0HXaueFyLZxcoeJDcMlCAcFtxJPgwsFqIiTWCfq3+nmRu6FU2dCIc4YmyPTRCVJ41C3FZW4Vd/rhVUkyqr9uiCXl3vMZfN8D5UDx6Y0/FCBGiPGgzPGIFMQIDBnqlpEj/esvjoXlc+FFbpm/oFmNtkVKilsmT9FiBLDFuSGcvozI0UK98Wjocbmdx/VrMpNbd78IcQpBBenKh6obCkQmGL1zXbLgyRp1/LS7q1XMCVw/VVtFq7bWN5zPYB6b8r//bF2XNiydrVu0AJaXuZQlY0j3MUJefMHVUN552yXFx3Q9hKupcPgeaweIYGaWtqL27fO+5uwCa8eiNWKyvUQL0tBOFCQSH4Q98LB5j1uJjmHf4dZbG6Hy79Ui27bqfQSefQPRvny0Fm6VLnClfvc/XuEYMtTasfA91i6vvKxdut/+2qVcNoDYU7hJT4r+PSYkEoRdkI6ciI3GkZPjVvGe+x6oV/EhlHt+Ft5r9xUvWGqRoqI2cucmJJq0266Z7/wX3CdvfAkgjhRtymr0V5Cpe/FDwsSfdh1vt18jiTPa9JeMHjiALPBogsB2j576vRFrumNBQkOJNiYONDgr9LhZfif9mgMVFCQSH7TpL7nSimt/c0bzaQDhxjewffy43sKF8+1dy87WvW4AAoYgtykGHGPqzLGhsqIwSSpqXDKqS53K2LZL51S3TOyus7RXH2wD046QCNCsIH33skR57d6UhoIeNHDbJd761oxrM7lM109NlJWPeN/nhTtb4L+EwK6dOu8IoGse8aP7H3RLz146fwigp+37P9IiM2u25xrn6jwnk+sEcIypw5CSlrLmkBbke8+qVFs73DpcZ3cjf4lJkSReaPaX3Ktzggzq6WooSHRU9V28dTkZLQ+oIlnyN6/WKtetc6b3nJGmpMSlEiaN+AB0+b9ks0s/3Dy+JVVZSRM8Fg+SHWH9NMf8kadkXr42Lx/dlKa2hMQDbTp0hHjBaH8zwBbA8oHYmAG2eP6uMZXKrTPHPLIhVZ7bxQxtEj/Q1ncIZjQ/RvsfrtQxpewU738F9lEHcMwNyzIoRiTuoIVECHEMtJAIIY6BgkQIcQwUJEKIY6AgEUIcQ0hBbeS/XDvolJqEHox4KVttCSEkHNi2kLDCxfyRVQ0rYpgVMAghJFzYFqRp1uoWmFwe+TKhTrdKCCHBsC1IRSf1oWa6DEIICTe21QXZweCsrlwHjBASGWwLkpkmAwNAgw3+JISQlhCS/1VhGUf9MzmpPCEk/AQVJIwyR3c/1p03PWy+SzwTQki4CJqHBCHCKHMI0Zv7kjnCnBASMYIKEiykvhl1Mrt/jYof7S1NkEuXRmAtH0JIuyeoywb37PW9KXLzinQlRgOy6tXyz4QQEm5CCmpDjMBmZmkTQiKAbUG6YoCew3ntoSQprmqbuacJIfGNbUEq6KanT11ZGN0liwgh7QfbgtSzo3bXeqUzB4kQEhlsC9LiL/TQESy/g1QAFEIICSe2BQk9bVh2x6yIYVbAIISQcMFVRwghjsG2hUQIIZGGgkQIcQwUJEKIY6AgEUIcAwWJEOIYYkqQeuSIvPVginz8eAeZOopaSki8EVPd/ldMTJQHb9BDV5Z8XC/3PFuj9lvDloV6fqfR80+pbXtk+uCRMmPomdIvJ1dSEvX93X30oLy6Za2s3/+5ekxINIgpM+P1NXWyYku9bP3CLU8sbr0YEZE5Y74m/33uRTIkt4dU1VTLV8ePSXVdrXr8/amz1JaQaBFzfs/tT9XI3F9Vy8ESq4K0is88llBp1UlZ5LGGvvXyH+QHi5+R21//ixImWEtTBo6wjiQk8sSEy2bcKl/ue75WWUy+PHxjssw6J0FeXFUnPXJcMnF4gqQmixw45lZ1zy7Tx/u6foFojUv40h/vkt49u6j9svJK+bLwiCx552NVWsr2OSesvcDM/yBdrQ4TDn48/XIp6DNYnlu/Sv65fb1V6wXzrGMl49f2pshPP0qzaglpHTFhIX1e5G4oVTY04pyhCTJ9dIIUHnVLcZlbenVxyQ+vSpJR/fU8TiXl3vMZfN8D5UBxy2c1OF5aIYVFx1QBZ+T3lbsWXCO33TRTPW4JZvny5sqJ6vDMUwU37cxe/eVwealfMQJTeuov4sI8us4kfMTcWLbX7k2RQT1dzVpIEK07/1wjq7ZqUXnhzhQlRv6snmgEtX/431fKFZdMVNbSzOvvt2qdBURoWLc8GZc3QIZ27SW7jhyQhR++JUcryqwjGoO51u8aUykvfpaiBl4TEg7isu988x53gxiBfYfbVnN/8/vXlBhlZjjXtbly1HiZd/ZUGdmjr1UjkpOWbu2dDuZav+7dDIoRCStxKUhHTrStAA0e0Eu5Z7+896aGcqra2a7N/1vxhlz73G/k0eWvy9p9u5SV9MBF17GXjUSVuBSktmTu1dPkqV/PV9tJ40c0lNzOWdYRLcNMitdcgRvVWpB39LvV/5Llu7eqXjZYToREi3YvSOiBA8gCDwc3f2OG2r6waKVMvuzHDcUEuFuKmRSvuZKdEj7LEAFt0CMzTDeGEBu0e0Gq1IupyDdnhKe7PCUlWUrLK+XJZ5ZaNSKzLjynIQ2gpYx4KTtoaUmXP1yy3PTGC3/i8cXDxqr9g2X+E76wNt/dYytl3tD2m+FOwo/je9m+e1minH+mdx243rmuhtwiIyaPv1Grgtiml61pb1qgenDj+YkqJQAgRaDEmir8pKedIQEzVJa++HMVvP7Pzi+l5Hi55HTKkCEDespXhUdlkGcLS2nvl4fkJw89Y72ibVkw6RKV/AiL6FStvjd9OmnxRMY2kiT99bQpMcqvZh4SCSuOt5B6dU5Q3fymQIxUfRdvXU5Gy/NvkCz5m1drlcB1zvSes6X8/q9vyud7i1TuEWJHfXt3laXL1kvRYW1pwFIa0Le72ncCXxQfUVnZ3TKylBChQJzWffVZQDECQzvpXsydJQxDkvDBObVJi0AQHXGrcGaHE8K/N9Iiulvr9FGMSDihIJEW0S3NrZbEIiScUJBIyAzM0tbRoZP8+ZDwwhgSIcQx8C+OEOIYKEiEEMcQNy7b5RdMkN7dc2X1J/+RLZ/utWq9fO2sEXLmsIHy6Z6vZPmazVZt+2L0sAEyIK+7uk/g9y8sUdtQKRg9VApGDZXjpeWy78Bh+fCT7dYzhLSOxNzc3Aes/Zilv6eRnXXGEDl87LisWLvFqvWSk50hUwtGSX19vSxdtV5qa1s/CBXnPHfccJk4drhMLhipGumIIX1l84491hHOIS21g1xxwUQZPqivZGV0VELyReEh2bv/kHVEaOTmZKnzdMrKkB65OerxZ/sOWM8S0nLiwkK68aoLJD0tVV57599SdKTYqvUSzHoKlZ5dO8us6edIcnKS1NTUSomngQO8d6StBYjLkP69Glk6S1etky8CiAuOv3LGRCUeEKJ/vb9eSk5Y42NaCf4IZpw7Vt2HZWs2yc49+61nCGkZMR9DgisGMYIr5k+M0GjQcGE9hUOMwIWTx6lGuPerg/L0y2/JK2+tViUarss3r54hk846o0GMQCAxAhPHDmsQo9feXRM2MQJ43+2ff6n2hw3MU1tCWkNMCxLcphEeNwRWypqNn1q1XmAdTD1nlNrHP3g4yPc0PAigsTaiCcS18NBRZenBKgK4jkDg/gwb2Eft41orq8I/Mn/Df/S6bb4CSUhLiWlBmlIwUlkq76/f5rexjTtjkBKPzZ/uCZtlgHgJQDA3EAgew42E9eYLXMdrLp6khNKAY1Bn9vG6/547S23hGvoCi+SN99YqS69Dih5lXFFZpbb+GDFYT0cLS87u58d7njfxTHVNuA4UCFsg7Ioczvftr1+sBJ2QQMSsIOGHbVwxf7ELNCL0qqHBmn/xcGBEovBQ4AnXhvbvrYSwrKLSqtHWGq43x+M++TZinK9bl04qKK6u92SVuma8fvqE0dZRp2OE8WiJnkjNH/16dVPbHR53Nhi4DojGlReeq6yq9I6pql7FyFop5uYz4s/DXDch/ohJQULjnjBmmNoP5IqdP3GM2q7d9GmrXRVjKaCgYYGZUwsa1RsrAlscg4bsG7PqnqtfZwLgBnM+iMeLS1aqWNTiZWtVHWI/gQgmSLhH5vXNxZgALDoIEa4F1uRfF70rqz7eqp5rer0tAbE9nBfu5vbPdMyJEH/EpCAFc8VgPaFxBbKeQgENG+cxxeBbh2KuY3C/Xmq7/+BRtTV07ZyttsUnvPMLGWsLrN+2u+EcqSl6JY/m4kNGbHyvyRcjgIGeNyAuhSA5BBS9lAjMQ8D9XW9rwHnhbrbW2iLxTcwJUjBXzI71FAponKYXDcXgW+dbb9ykPfsPqq0ht9PpFk1WZke1xWfxtWJ86wMBQQaBGriJMQXDBP0Rh/PtpfR3vf6AoIFgwkeIHWJOkIK5YujmDncg22DcsuaEwrhgTS2zvB66F6q0/KTaAuN2fVV0RG0NwdwxOyJgJ1YDCw33CpaY7/VC1P1drz8G9tHLJIXLkiLtm5gSJOOKIRbhzxVDA0NAFoIRiZyg7Ey9cCICz6GAGA0CusDXEjKi0TRAHkyQ7LhTvgH1QHTtos9z8GjjifzhEvu7Xn/06dlVbXd8FjxwTkgwYkaQ8K895eyRKtbx/rptVm1jTDe7CciGm4audhuChOsFEMnxo/P9WlWB4kDB4kOZ6XpS/eZEx1g2KZaw+MOcp0Oy172DeBqXOBg4FhYWjvWXlGrA94JiLExCAhEzggRXDP/ayAz254qhcRjrKdi/eksxlktpRWA3xjTkr8+c3NCNjgC3CVB/47Jp6lpBoDiQv3qcy5RBfXqquiH9ejXUNW3sh45qMYO4GRevKXu+1HGuAR63C9eFggA33F1/1+uLEVrQ3B+AifmhVJ1y9uq9pO2JCUEK5orBGkHjaM56CgdGkJqzTN75YINqzBAVCCSSEld6GuzHm3epeggEltUOFAfyV486nMsU407hXKauqaghvob3BueOHe7XOoFVs27rLnXfjFWGLHDcY1wv7re5Xl8gUGYsH4bsNPcHYFw6/FG0Nv2CxD8xMbgWFgAaXaBBpMgshmDhnz0SsSOABn39rGlqH3k6sdC4INQ3zJ7eIGAQOdyf5tyrQOBcl04rUImd5nx2pnK5ZMrZygIL18BmEt843kIK5ooZ6wnWR6TECO+BhgXQCGPlnx7X+fziFcpSghWE+1hVHfrilwB5TXh9dW2tOh/+HOzMK9XNyofa/QWnJyHB4ZzazQAxHDtCJ2ECWBhvrlxH18MmxqrEnwmSIgkJRkx1+0cb0wuFBgWXAwmQFCP7mPhRSyeCI+0PWkiEEMdAC4kQ4hgoSIQQx0BBijBY5fWJSSdl5eWlsn3OCZneu9Z6JjTwOrx+3dWl6nzjurZ+oQJCnEbMxZBmznLL6NEiPXp6L/uD912y6B/OW2ceovHUlApJT9bXuvVYojy6KU02HElUj0MB57prTKUSOHO+RzakynO7vLNPEhLrxJQgfevbbhk1+vTLXb/OJc8/F1lBghDmDxPp10+/f02NyBd7XbJksci+fae/N4Tj7zPKlXi8tz9ZHlifJsVV4bnG+SNPeYoeojL/g3RZURh4vBohsUTMrMs2cqRbLrnUKwbb/+OSr750yYEDLtm0QeTw4cgJ0vwFbjlnvFs66Rw/RaLHyOnSReTsAo8gfixS1URsfl5QKcNy6mTtoSS57f10qawN3/WtO5wkmR6hOzO3Tvpm1Msre/SEboTEOjETQxozztrx8MrLLvnz09oqQtm2LXJiBIuo/wAthAeLXPLGay558QVXg1WEgfLnXaB2G3FBnh7/9dAnOpcp3DyyMU0qalwyqkudssYIiQdixkIafaZIr956/89P+9fRu+9xyzVfd8uYsSKrP/CK1OO/q5eLZ7olt6vIls26/oZ5brn5Fn0sROWWW90y+wq3TJrillSPhuzepY87ccIlRYWYcsQlTz/lUm5a4X6X7NwhMm26OkSOeKwzc16AAPSl/WpUzOjpHc3HeF76411y+62Xy83fmCHXzp4kkyeOVPW7Pve8aRCMGJWcSlBWkz/g3j17XoX0SnfL8kJ7s0gS0lY42kKCdTJ+gi7Zei4xhakzpTWkpLhlskeEMqzB8NheeFHj88ICaxo0Lylp/NiXER5XDWw8Gjx4fby0QgqLjqkCzsjvK3ctuEZuu2mmetwcO4/r82cmB7aQpvTUltqFlsVGiJNxtCBNnipy/Vy3KkOGegXC1JnSGjp38TToLB0Y9w1OIzbUHNPP875vYZPJK5sTiKbc9qP/lTm3PqrKzOvvl9f/tUbVz75ovNo2x/YSLUhDOwV+P/TqwVL7xQY9Ho8QJ8M8JA+ISSEW9dtfu6TcmlYoM1NvAzF+gt7i+BXLA1tLofKb378mZeWVkplhP/aUnhRYlJFicN27GfL6Xga+ifNxtCBBJO5YkKAKLBiDqTOltXy01nvu8rLg4oL0A5MHtezd1onR4AG9lHv2y3tvaihNJ0QLRkUYe/AIaUvi3kLKyWmdS9cUpACYXKh33nb5tY7KavRtzQxilMy9epo89ev5ajtp/IiGkttZz0wZDBOr2nWchi6JD+Lyl4xAtQG9aOEAeVD3PVDfEMuCGC1d4t8yMbGdwVnND+9Azxp4YdFKmXzZjxuKCXAHI7+TPv+BCgoSiQ/i8peMQDXcKnTtI8PagJ46k2kdCjjPLd9xq/MCuI/Hjjbu7fO1xJA5bSdHKCUlWUrLK+XJZ5ZaNSKzLjxHeve03qgZOqe6ZWJ3PS5u9cHA3flIQbh7bKXMG8p5nIjziStB2r3b2vEAt+rsArd8usNrxcC6uX6u9SAE8vKsHQuct2lP31C9AEcDaw7pvKB7zwq8IACC13DPnvz1d1XsCNvvf+dy+XxvkXoeOUqo98etw6vUsBT0oO0pDfw1ju9WI/PyqyU/h8mTxPnElSAtf09nUxuKPZ7Pq69YD6LM41tSlZU0wWPFYHQ+LJqm/P6vbyrxQe4RYkd9e3eVpcvWS9FhvXAjLKUBfU9fwgjJjhAZgG795jApATtL6NYR5xOXM0bCLUO3fSSHlNjBCaP9McAXriMH4ZJYIC7/NpHg2NZiBEwOEEb7H67UMaVsn4B7KOB1eD3A+W5YlmFr6pHuHbWFRDEisQDn1I5zMKkbxHDaG/ZSCQhpSxhYiGNMD9+hk/yaSWxAC4kQ4hj410kIcQwUJEKIY6AgEUIcAwWJEOIYKEiEEMdAQSKEOAYKEiHEMVCQCCGOgYJECHEMFCRCiGOgIBFCHAMFiRDiGChIhBDHQEEihDgGChIhxDFQkAghjoGCRAhxDBQkQohjoCARQhwDBYkQ4hgoSIQQx0BBIoQ4BgoSIcQxUJAIIY6BgkQIcQwUJEKIY2j3S2lvHZChtqP2lqttPLFg0iUypld/yUrtKNV1tbLryAFZ+OFbcrSizDqCEGdBCylOeXjmXJkycISkJqfIV8ePqbqRPfrKzy+ao/YJcSIUpDhk+uCRMiS3h7KKbn/9L/KDxc+o7eHyUumWkSVzxnzNOpIQZ+F4QYJLZcqdnTtIfkqi/KlHmnr8Yb90VedLZoJL1f2rT8eGYx7M7aDqDWelJjac02Aem3JbpxTrGWl4P7zOF3/1vucIdr14D9TPzUpW9Xgej1/u3VGmd0yyjgqdgj6D1Hb57q0N7hm2b326Ue2f03eI2jZl/shTsn3OCfnF+EqrhpDo4nhB+qiyThWQn5LgacTJ0jvZpeqyPCIzLztZZmd4G++fe6apOjyHY0rr3XJlZrKqN6JUXt/4vMA8NuVAreegFmBeD+xcL4D4oH7HqXrZ73nf4Z7XPdE9VXoleUU0FHpk5qjtnuLDamtYs2+n2nbPzFbbpkzpWaO2F+bpLSHRxvGCdMvBSlUAGjZE5ZKvTqq6hSXVqh5WCEBDR2PeUV0vF1vH4NjXympUvRGCndV1jc4LzGNTFpfXWs+Ehnk9CHa9huEdEuSaQv06HPtehX7v2RnJahsqRnC2Fu2Ts/MGqeA23DhjLaUk+re+Ht3kseSOJcovNqRaNYREl5iKIeUlJcivinWjBitONrZyjJvzsyOnpMxjGRmePK5fc3YTlyvSBLtewzKPAEEkDTs9gtoajOBAgL4xbrIKbt8y/nxV1xwbjiTKde9myOt7ve4qIdEk5oLajRuutnR+VXxKPTYu2fSOiSo+Y4qxNHzjSNGiues1HKgNb+YFgtmGFZ9tU71s//zPequGEOcSc4Jkh/k5KaeV9sShshNqCzftn9vXq162lzZ9KLnpmaqeEKcSV4Jk3LSbiipVomPTYmI7viDeBNrCeooUJ6oq1HZg525qa5jYL19tTV4SIU4jrgRpxUntqtzVRXe326G0TotY054vX9ZXabfrhixvkBnnH58W3ZiUXd7fs0Ntz+2f32AVYXvxsLFq/+Mvd6ttU6b3rpW7x1bKvKGNXUpCooWjh46g0d/ZWbtbpvGboDCCxb7xGQNyjtDND9CFXlijPx56sq4tPHlavAaBcHSxA9/jYW19/3CV2sd1vNI7Te3DooKI4XrQe4f3Qt3yiloVtA7lehHfgjuJ3jcTeAeB6kPhsdk3SZ9OXVQ8CS4cet4Q7EZy5PxXn7aOaowSo/xqeW1vivz0I/15CYkmjraQMjxXh4bta4mYx3jOH/cdPSU/PVKlhAC9XOZ45CNlJpz+IlhV3ztUpUTF93hfICQ4xuQIoTsf72HEDXXowWvJ9UaKh5ct8lhK26WqploJE9h28Eu5/+2X1L4/hnbS7uvOkihfLCEW7X5wLfHy9xnlMqpLncz/IF1WFAZ2YQmJFPwrJA1076gtJIoRaSsoSKSBbmluOVwZP72NJPagIBHFwCxtHR06yZ8EaTsYQyKEOAb+HRJCHAMFiRDiGIK6bOuuLpX0ZLdU1Lhk0Z5keWQjE+YIIZEhqIW05lCSmiMHooQsXmTzEkJIJAgqSN9b3VHNkXOPNZRgbO7pwzUIISQchBxDqqhlngohJDLYFqTzeuuR9CuZxUsIiRC2BWlidy1IS77k9KaEkMhgW5AQ1CaEkEiSmJub+4C13yz5nerV8IJZ/ao94iRS53ZJEYcZEELCiG1B+teXyVJW7ZLEBJfMGVwtQ7Lr5JU9dN8IIeHD9li2JyadlAvyalRO0pv7kmVbSZJaNocQQsKFbUHCEstgxEv+Vz0lhJDWYjsIZObJMdNUEEJIuLEtSB8e1BPnX9KX674TQiKDbUF6b78WpCk9KUiEkMhgW5D6pHMMGyEksgQVJPSuYTWKu8fpNco2HmXPGiEkMgQVJAwZwdI4CGo/tzOF8yERQiIG59QmhDgG2zEkQgiJNBQkQohjoCARQhwDBYkQ4hgoSIQQx0BBIoQ4BgoSIcQxUJAIIY6BgkQIcQwUJEKIQxD5/xkXGmZP/ET+AAAAAElFTkSuQmCC;" vertex="1" parent="1">
          <mxGeometry x="-350" y="786" width="292" height="383" as="geometry" />
        </mxCell>
        <mxCell id="KoFQPGKLHCBhvZpColBv-29" value="&lt;font style=&quot;font-size: 30px;&quot;&gt;fun2(3)&lt;/font&gt;" style="text;html=1;strokeColor=none;fillColor=none;align=center;verticalAlign=middle;whiteSpace=wrap;rounded=0;" vertex="1" parent="1">
          <mxGeometry x="261" y="770" width="170" height="50" as="geometry" />
        </mxCell>
        <mxCell id="KoFQPGKLHCBhvZpColBv-30" value="" style="endArrow=none;html=1;rounded=0;entryX=0.5;entryY=1;entryDx=0;entryDy=0;exitX=0.5;exitY=0;exitDx=0;exitDy=0;" edge="1" parent="1" source="KoFQPGKLHCBhvZpColBv-31" target="KoFQPGKLHCBhvZpColBv-29">
          <mxGeometry width="50" height="50" relative="1" as="geometry">
            <mxPoint x="360" y="910" as="sourcePoint" />
            <mxPoint x="230" y="890" as="targetPoint" />
          </mxGeometry>
        </mxCell>
        <mxCell id="KoFQPGKLHCBhvZpColBv-31" value="&lt;font style=&quot;font-size: 30px;&quot;&gt;fun2(3 - 1)&lt;/font&gt;" style="text;html=1;strokeColor=none;fillColor=none;align=center;verticalAlign=middle;whiteSpace=wrap;rounded=0;" vertex="1" parent="1">
          <mxGeometry x="256" y="890" width="180" height="70" as="geometry" />
        </mxCell>
        <mxCell id="KoFQPGKLHCBhvZpColBv-34" value="" style="endArrow=none;html=1;rounded=0;entryX=0.5;entryY=1;entryDx=0;entryDy=0;exitX=0.5;exitY=0;exitDx=0;exitDy=0;" edge="1" source="KoFQPGKLHCBhvZpColBv-35" parent="1" target="KoFQPGKLHCBhvZpColBv-31">
          <mxGeometry width="50" height="50" relative="1" as="geometry">
            <mxPoint x="355" y="1050" as="sourcePoint" />
            <mxPoint x="341" y="960" as="targetPoint" />
          </mxGeometry>
        </mxCell>
        <mxCell id="KoFQPGKLHCBhvZpColBv-35" value="&lt;font style=&quot;font-size: 30px;&quot;&gt;fun2(2 - 1)&lt;/font&gt;" style="text;html=1;strokeColor=none;fillColor=none;align=center;verticalAlign=middle;whiteSpace=wrap;rounded=0;" vertex="1" parent="1">
          <mxGeometry x="256" y="1030" width="180" height="70" as="geometry" />
        </mxCell>
        <mxCell id="KoFQPGKLHCBhvZpColBv-36" value="" style="endArrow=none;html=1;rounded=0;entryX=0.5;entryY=1;entryDx=0;entryDy=0;exitX=0.5;exitY=0;exitDx=0;exitDy=0;" edge="1" source="KoFQPGKLHCBhvZpColBv-37" parent="1" target="KoFQPGKLHCBhvZpColBv-35">
          <mxGeometry width="50" height="50" relative="1" as="geometry">
            <mxPoint x="355" y="1190" as="sourcePoint" />
            <mxPoint x="346" y="1100" as="targetPoint" />
          </mxGeometry>
        </mxCell>
        <mxCell id="KoFQPGKLHCBhvZpColBv-37" value="&lt;font style=&quot;font-size: 30px;&quot;&gt;fun2(1 - 1)&lt;/font&gt;" style="text;html=1;strokeColor=none;fillColor=none;align=center;verticalAlign=middle;whiteSpace=wrap;rounded=0;" vertex="1" parent="1">
          <mxGeometry x="256" y="1160" width="180" height="70" as="geometry" />
        </mxCell>
        <mxCell id="KoFQPGKLHCBhvZpColBv-40" value="" style="endArrow=none;html=1;rounded=0;entryX=0.5;entryY=1;entryDx=0;entryDy=0;exitX=0.5;exitY=0;exitDx=0;exitDy=0;" edge="1" source="KoFQPGKLHCBhvZpColBv-41" parent="1" target="KoFQPGKLHCBhvZpColBv-37">
          <mxGeometry width="50" height="50" relative="1" as="geometry">
            <mxPoint x="364" y="1370" as="sourcePoint" />
            <mxPoint x="355" y="1280" as="targetPoint" />
          </mxGeometry>
        </mxCell>
        <mxCell id="KoFQPGKLHCBhvZpColBv-41" value="&lt;font style=&quot;font-size: 30px;&quot;&gt;X&lt;/font&gt;" style="text;html=1;strokeColor=none;fillColor=none;align=center;verticalAlign=middle;whiteSpace=wrap;rounded=0;" vertex="1" parent="1">
          <mxGeometry x="256" y="1290" width="180" height="70" as="geometry" />
        </mxCell>
        <mxCell id="KoFQPGKLHCBhvZpColBv-42" value="&lt;font style=&quot;font-size: 30px;&quot;&gt;OUTPUT: 3 2 1&lt;/font&gt;" style="text;html=1;strokeColor=none;fillColor=none;align=center;verticalAlign=middle;whiteSpace=wrap;rounded=0;" vertex="1" parent="1">
          <mxGeometry x="-350" y="453" width="280" height="70" as="geometry" />
        </mxCell>
        <mxCell id="KoFQPGKLHCBhvZpColBv-44" value="" style="endArrow=classic;html=1;rounded=0;exitX=1;exitY=0.5;exitDx=0;exitDy=0;edgeStyle=orthogonalEdgeStyle;curved=1;entryX=1;entryY=0.5;entryDx=0;entryDy=0;" edge="1" parent="1" source="KoFQPGKLHCBhvZpColBv-41" target="KoFQPGKLHCBhvZpColBv-46">
          <mxGeometry relative="1" as="geometry">
            <mxPoint x="510" y="1330" as="sourcePoint" />
            <mxPoint x="530" y="1220" as="targetPoint" />
            <Array as="points">
              <mxPoint x="850" y="1325" />
              <mxPoint x="850" y="1140" />
              <mxPoint x="653" y="1140" />
            </Array>
          </mxGeometry>
        </mxCell>
        <mxCell id="KoFQPGKLHCBhvZpColBv-45" value="&lt;span style=&quot;font-size: 25px;&quot;&gt;go back to previous call and run next statement in that call&lt;/span&gt;" style="edgeLabel;resizable=0;html=1;align=center;verticalAlign=middle;" connectable="0" vertex="1" parent="KoFQPGKLHCBhvZpColBv-44">
          <mxGeometry relative="1" as="geometry" />
        </mxCell>
        <mxCell id="KoFQPGKLHCBhvZpColBv-46" value="&lt;font style=&quot;font-size: 30px;&quot;&gt;printf, output = 1&lt;/font&gt;" style="text;html=1;strokeColor=none;fillColor=none;align=center;verticalAlign=middle;whiteSpace=wrap;rounded=0;" vertex="1" parent="1">
          <mxGeometry x="414" y="1119" width="239" height="50" as="geometry" />
        </mxCell>
        <mxCell id="KoFQPGKLHCBhvZpColBv-47" value="" style="endArrow=none;html=1;rounded=0;entryX=0.5;entryY=0;entryDx=0;entryDy=0;exitX=0.75;exitY=1;exitDx=0;exitDy=0;" edge="1" parent="1" source="KoFQPGKLHCBhvZpColBv-35" target="KoFQPGKLHCBhvZpColBv-46">
          <mxGeometry width="50" height="50" relative="1" as="geometry">
            <mxPoint x="431" y="1120" as="sourcePoint" />
            <mxPoint x="481" y="1070" as="targetPoint" />
          </mxGeometry>
        </mxCell>
        <mxCell id="KoFQPGKLHCBhvZpColBv-48" value="" style="endArrow=none;html=1;rounded=0;entryX=0.75;entryY=1;entryDx=0;entryDy=0;exitX=0.5;exitY=0;exitDx=0;exitDy=0;" edge="1" parent="1" source="KoFQPGKLHCBhvZpColBv-49" target="KoFQPGKLHCBhvZpColBv-31">
          <mxGeometry width="50" height="50" relative="1" as="geometry">
            <mxPoint x="480" y="1000" as="sourcePoint" />
            <mxPoint x="510" y="990" as="targetPoint" />
          </mxGeometry>
        </mxCell>
        <mxCell id="KoFQPGKLHCBhvZpColBv-49" value="&lt;font style=&quot;font-size: 30px;&quot;&gt;printf, output = 2&lt;/font&gt;" style="text;html=1;strokeColor=none;fillColor=none;align=center;verticalAlign=middle;whiteSpace=wrap;rounded=0;" vertex="1" parent="1">
          <mxGeometry x="414" y="1000" width="239" height="50" as="geometry" />
        </mxCell>
        <mxCell id="KoFQPGKLHCBhvZpColBv-50" value="" style="endArrow=classic;html=1;rounded=0;exitX=1;exitY=0.5;exitDx=0;exitDy=0;edgeStyle=orthogonalEdgeStyle;curved=1;entryX=1;entryY=0.5;entryDx=0;entryDy=0;" edge="1" parent="1" source="KoFQPGKLHCBhvZpColBv-46" target="KoFQPGKLHCBhvZpColBv-49">
          <mxGeometry relative="1" as="geometry">
            <mxPoint x="585" y="1105" as="sourcePoint" />
            <mxPoint x="802" y="924" as="targetPoint" />
            <Array as="points">
              <mxPoint x="653" y="1130" />
              <mxPoint x="999" y="1130" />
              <mxPoint x="999" y="1025" />
            </Array>
          </mxGeometry>
        </mxCell>
        <mxCell id="KoFQPGKLHCBhvZpColBv-51" value="&lt;span style=&quot;font-size: 25px;&quot;&gt;go back to previous call and run next statement in that call&lt;/span&gt;" style="edgeLabel;resizable=0;html=1;align=center;verticalAlign=middle;" connectable="0" vertex="1" parent="KoFQPGKLHCBhvZpColBv-50">
          <mxGeometry relative="1" as="geometry" />
        </mxCell>
        <mxCell id="KoFQPGKLHCBhvZpColBv-52" value="" style="endArrow=none;html=1;rounded=0;entryX=0.75;entryY=1;entryDx=0;entryDy=0;exitX=0.5;exitY=0;exitDx=0;exitDy=0;" edge="1" parent="1" source="KoFQPGKLHCBhvZpColBv-53" target="KoFQPGKLHCBhvZpColBv-29">
          <mxGeometry width="50" height="50" relative="1" as="geometry">
            <mxPoint x="530" y="860" as="sourcePoint" />
            <mxPoint x="515" y="830" as="targetPoint" />
          </mxGeometry>
        </mxCell>
        <mxCell id="KoFQPGKLHCBhvZpColBv-53" value="&lt;font style=&quot;font-size: 30px;&quot;&gt;printf, output = 3&lt;/font&gt;" style="text;html=1;strokeColor=none;fillColor=none;align=center;verticalAlign=middle;whiteSpace=wrap;rounded=0;" vertex="1" parent="1">
          <mxGeometry x="414" y="880" width="239" height="50" as="geometry" />
        </mxCell>
        <mxCell id="KoFQPGKLHCBhvZpColBv-54" value="" style="endArrow=classic;html=1;rounded=0;exitX=1;exitY=0.5;exitDx=0;exitDy=0;edgeStyle=orthogonalEdgeStyle;curved=1;entryX=1;entryY=0.5;entryDx=0;entryDy=0;" edge="1" parent="1" source="KoFQPGKLHCBhvZpColBv-49" target="KoFQPGKLHCBhvZpColBv-53">
          <mxGeometry relative="1" as="geometry">
            <mxPoint x="690" y="999" as="sourcePoint" />
            <mxPoint x="690" y="880" as="targetPoint" />
            <Array as="points">
              <mxPoint x="1036" y="1025" />
              <mxPoint x="1036" y="880" />
              <mxPoint x="653" y="880" />
            </Array>
          </mxGeometry>
        </mxCell>
        <mxCell id="KoFQPGKLHCBhvZpColBv-55" value="&lt;span style=&quot;font-size: 25px;&quot;&gt;go back to previous call and run next statement in that call&lt;/span&gt;" style="edgeLabel;resizable=0;html=1;align=center;verticalAlign=middle;" connectable="0" vertex="1" parent="KoFQPGKLHCBhvZpColBv-54">
          <mxGeometry relative="1" as="geometry" />
        </mxCell>
        <mxCell id="KoFQPGKLHCBhvZpColBv-56" value="&lt;font style=&quot;font-size: 30px;&quot;&gt;OUTPUT: 1 2 3&lt;/font&gt;" style="text;html=1;strokeColor=none;fillColor=none;align=center;verticalAlign=middle;whiteSpace=wrap;rounded=0;" vertex="1" parent="1">
          <mxGeometry x="-344" y="1169" width="280" height="70" as="geometry" />
        </mxCell>
        <mxCell id="KoFQPGKLHCBhvZpColBv-57" value="" style="endArrow=none;html=1;rounded=0;" edge="1" parent="1">
          <mxGeometry width="50" height="50" relative="1" as="geometry">
            <mxPoint x="-710" y="690" as="sourcePoint" />
            <mxPoint x="1390" y="690" as="targetPoint" />
          </mxGeometry>
        </mxCell>
        <mxCell id="KoFQPGKLHCBhvZpColBv-58" value="&lt;font style=&quot;font-size: 30px;&quot;&gt;printing was done at calling time&lt;/font&gt;" style="text;html=1;strokeColor=none;fillColor=none;align=center;verticalAlign=middle;whiteSpace=wrap;rounded=0;" vertex="1" parent="1">
          <mxGeometry x="-430" y="523" width="440" height="70" as="geometry" />
        </mxCell>
        <mxCell id="KoFQPGKLHCBhvZpColBv-59" value="&lt;font style=&quot;font-size: 30px;&quot;&gt;printing was done at returning time&lt;/font&gt;" style="text;html=1;strokeColor=none;fillColor=none;align=center;verticalAlign=middle;whiteSpace=wrap;rounded=0;" vertex="1" parent="1">
          <mxGeometry x="-444" y="1239" width="480" height="71" as="geometry" />
        </mxCell>
        <mxCell id="KoFQPGKLHCBhvZpColBv-60" value="&lt;h1&gt;Conclusion&lt;/h1&gt;&lt;p&gt;Recursion have 2 phase:&lt;/p&gt;" style="text;html=1;strokeColor=none;fillColor=none;spacing=5;spacingTop=-20;whiteSpace=wrap;overflow=hidden;rounded=0;container=1;" vertex="1" parent="1">
          <mxGeometry x="-9" y="1420" width="250" height="170" as="geometry">
            <mxRectangle x="20" y="1470" width="180" height="80" as="alternateBounds" />
          </mxGeometry>
        </mxCell>
        <mxCell id="KoFQPGKLHCBhvZpColBv-61" value="Phase of recursion" style="swimlane;fontStyle=0;childLayout=stackLayout;horizontal=1;startSize=30;horizontalStack=0;resizeParent=1;resizeParentMax=0;resizeLast=0;collapsible=1;marginBottom=0;whiteSpace=wrap;html=1;" vertex="1" parent="KoFQPGKLHCBhvZpColBv-60">
          <mxGeometry x="25.003205128205124" y="80" width="200" height="81" as="geometry" />
        </mxCell>
        <mxCell id="KoFQPGKLHCBhvZpColBv-62" value="1. Calling phase" style="text;strokeColor=none;fillColor=none;align=left;verticalAlign=middle;spacingLeft=4;spacingRight=4;overflow=hidden;points=[[0,0.5],[1,0.5]];portConstraint=eastwest;rotatable=0;whiteSpace=wrap;html=1;" vertex="1" parent="KoFQPGKLHCBhvZpColBv-61">
          <mxGeometry y="30" width="200" height="25.5" as="geometry" />
        </mxCell>
        <mxCell id="KoFQPGKLHCBhvZpColBv-63" value="2. Returning phase" style="text;strokeColor=none;fillColor=none;align=left;verticalAlign=middle;spacingLeft=4;spacingRight=4;overflow=hidden;points=[[0,0.5],[1,0.5]];portConstraint=eastwest;rotatable=0;whiteSpace=wrap;html=1;" vertex="1" parent="KoFQPGKLHCBhvZpColBv-61">
          <mxGeometry y="55.5" width="200" height="25.5" as="geometry" />
        </mxCell>
      </root>
    </mxGraphModel>
  </diagram>
</mxfile>
